<svg width="389" height="482" viewBox="0 0 389 482" fill="none" xmlns="http://www.w3.org/2000/svg">
<g clip-path="url(#clip0_1_491)">
<mask id="mask0_1_491" style="mask-type:luminance" maskUnits="userSpaceOnUse" x="0" y="0" width="536" height="529">
<path d="M536 0H0V529H536V0Z" fill="white"/>
</mask>
<g mask="url(#mask0_1_491)">
<path d="M520.055 241.425C520.055 242.607 519.275 243.77 519.262 244.952C519.24 246.134 519.907 247.316 519.868 248.498C519.833 249.679 520.861 250.899 520.809 252.076C520.757 253.258 520.521 254.435 520.456 255.612C520.382 256.794 520.7 258.005 520.608 259.182C520.517 260.364 520.9 261.593 520.791 262.765C520.687 263.943 519.85 265.063 519.724 266.235C519.597 267.412 519.17 268.556 519.027 269.728C518.878 270.9 517.475 271.906 517.318 273.074C517.153 274.246 518.765 275.666 518.586 276.834C518.408 278.001 518.194 279.174 517.998 280.341C517.802 281.509 517.048 282.581 516.83 283.739C516.612 284.902 516.822 286.15 516.586 287.304C516.351 288.462 515.296 289.453 515.048 290.606C514.795 291.759 514.647 292.937 514.377 294.085C514.107 295.238 515.266 296.735 514.974 297.879C514.686 299.027 513.867 300.052 513.562 301.195C513.261 302.339 512.133 303.264 511.81 304.398C511.488 305.537 511.335 306.724 510.995 307.853C510.651 308.987 509.4 309.835 509.043 310.96C508.686 312.089 508.219 313.167 507.84 314.287C507.466 315.407 507.923 316.803 507.535 317.913C507.139 319.028 507.862 320.549 507.452 321.654C507.043 322.764 505.452 323.446 505.021 324.547C504.594 325.648 505.47 327.268 505.025 328.364C504.585 329.46 501.652 329.546 501.19 330.632C500.729 331.724 500.676 332.968 500.197 334.049C499.722 335.131 500.567 336.799 500.075 337.876C499.578 338.953 497.6 339.339 497.09 340.407C496.576 341.474 497.011 342.985 496.48 344.043C495.952 345.101 495.491 346.197 494.95 347.246C494.405 348.299 493.216 349.014 492.658 350.057C492.1 351.101 491.922 352.34 491.342 353.374C490.762 354.408 490.104 355.39 489.512 356.414C488.919 357.439 488.056 358.302 487.446 359.317C486.84 360.332 486.788 361.676 486.165 362.681C485.538 363.687 483.668 363.911 483.027 364.907C482.387 365.903 482.714 367.504 482.06 368.49C481.402 369.477 481.467 370.94 480.796 371.917C480.125 372.894 479.676 374.037 478.992 375.005C478.308 375.972 477.192 376.644 476.491 377.602C475.794 378.56 474.447 379.046 473.737 379.994C473.022 380.938 473.009 382.415 472.277 383.35C471.549 384.284 470.137 384.694 469.397 385.613C468.656 386.538 467.671 387.257 466.913 388.172C466.159 389.083 465.653 390.198 464.882 391.098C464.111 391.999 463.618 393.133 462.834 394.025C462.045 394.916 460.868 395.459 460.075 396.336C459.274 397.213 459.544 399.062 458.733 399.924C457.927 400.791 455.752 400.386 454.929 401.24C454.101 402.092 454.842 404.451 454.001 405.291C453.164 406.129 451.321 405.995 450.471 406.82C449.626 407.649 449.682 409.417 448.819 410.232C447.957 411.047 446.963 411.748 446.087 412.553C445.211 413.354 443.194 412.925 442.305 413.711C441.416 414.502 441.795 416.718 440.901 417.49C439.999 418.267 437.764 417.504 436.853 418.267C435.942 419.03 434.904 419.625 433.979 420.374C433.058 421.122 432.595 422.428 431.665 423.161C430.73 423.895 430.017 424.91 429.072 425.63C428.127 426.349 426.85 426.635 425.895 427.346C424.941 428.051 424.141 428.961 423.172 429.652C422.203 430.344 421.49 431.393 420.516 432.068C419.538 432.744 418.598 433.483 417.609 434.146C416.621 434.808 414.959 434.464 413.961 435.113C412.963 435.763 412.655 437.462 411.647 438.094C410.64 438.726 410.013 439.99 408.996 440.61C407.979 441.225 406.364 440.885 405.338 441.487C404.311 442.085 402.609 441.517 401.573 442.106C400.537 442.691 399.679 443.551 398.633 444.119C397.587 444.691 396.811 445.728 395.755 446.278C394.704 446.833 393.793 447.654 392.728 448.196C391.668 448.734 391.017 450.097 389.947 450.622C388.877 451.138 387.84 451.77 386.761 452.274C385.681 452.781 383.604 451.151 382.514 451.641C381.43 452.132 381.097 454.269 380.003 454.742C378.909 455.215 377.776 455.611 376.672 456.067C375.573 456.527 374.388 456.794 373.279 457.232C372.17 457.671 371.221 458.518 370.103 458.94C368.989 459.366 367.929 459.972 366.81 460.376C365.692 460.781 364.02 459.675 362.892 460.062C361.764 460.449 360.453 460.247 359.315 460.617C358.183 460.991 357.084 461.404 355.946 461.761C354.808 462.114 354.028 463.589 352.881 463.924C351.738 464.264 350.225 463.296 349.077 463.615C347.93 463.937 347.058 465.202 345.906 465.503C344.754 465.804 343.722 466.561 342.561 466.849C341.404 467.133 340.454 468.311 339.293 468.578C338.131 468.845 336.733 468.096 335.562 468.346C334.395 468.591 333.234 468.862 332.062 469.094C330.891 469.322 329.739 469.644 328.563 469.86C327.392 470.075 326.033 469.206 324.852 469.404C323.676 469.597 322.61 470.432 321.429 470.608C320.248 470.784 319.149 471.511 317.963 471.674C316.782 471.838 315.573 471.791 314.387 471.933C313.206 472.074 311.881 470.918 310.69 471.047C309.504 471.171 308.367 471.627 307.176 471.73C305.991 471.838 304.838 472.289 303.648 472.376C302.457 472.466 301.33 473.425 300.134 473.494C298.943 473.567 297.768 474.04 296.572 474.092C295.381 474.143 294.186 474.625 292.991 474.664C291.8 474.698 290.576 474.109 289.38 474.13C288.185 474.147 286.975 472.242 285.775 472.242C284.58 472.242 283.365 474.879 282.17 474.861C280.974 474.844 279.803 473.36 278.608 473.33C277.412 473.296 276.236 472.896 275.046 472.844C273.85 472.788 272.616 473.537 271.426 473.468C270.23 473.395 268.953 474.358 267.762 474.272C266.567 474.182 265.357 474.1 264.166 473.997C262.976 473.889 261.776 473.657 260.59 473.532C259.4 473.408 258.363 471.898 257.177 471.756C255.991 471.614 254.651 472.586 253.471 472.423C252.285 472.259 251.032 472.453 249.856 472.272C248.675 472.096 247.875 469.533 246.699 469.335C245.518 469.141 244.081 470.432 242.905 470.217C241.729 470.001 240.707 469.008 239.536 468.771C238.364 468.539 236.942 469.481 235.776 469.236C234.61 468.986 233.607 467.967 232.445 467.701C231.279 467.434 230.402 466.032 229.24 465.748C228.078 465.46 226.425 467.09 225.273 466.789C224.116 466.492 223.427 464.496 222.28 464.178C221.128 463.86 219.793 464.204 218.65 463.869C217.503 463.529 216.207 463.688 215.069 463.335C213.927 462.983 212.924 462.2 211.791 461.83C210.658 461.456 209.762 460.415 208.634 460.028C207.506 459.636 206.195 459.77 205.077 459.366C203.954 458.961 203.183 457.654 202.069 457.237C200.956 456.811 199.259 457.869 198.15 457.43C197.042 456.992 196.097 456.14 194.998 455.688C193.894 455.228 193.036 454.222 191.942 453.749C190.848 453.276 190.096 452.076 189.007 451.59C187.917 451.099 186.428 451.499 185.348 450.992C184.268 450.489 183.006 450.355 181.935 449.835C180.866 449.31 179.497 449.353 178.436 448.816C177.371 448.278 177.033 446.368 175.978 445.818C174.922 445.263 173.862 444.751 172.816 444.179C171.77 443.607 170.044 444.235 169.008 443.65C167.972 443.061 167.138 442.115 166.111 441.513C165.084 440.915 163.527 441.156 162.506 440.541C161.489 439.922 160.554 439.135 159.546 438.507C158.539 437.874 158.327 436.008 157.329 435.363C156.331 434.713 154.717 434.971 153.728 434.309C152.74 433.647 152.692 431.638 151.714 430.963C150.735 430.288 149.25 430.331 148.282 429.633C147.313 428.942 146.19 428.456 145.235 427.751C144.281 427.045 143.505 426.097 142.56 425.378C141.616 424.658 140.748 423.843 139.813 423.109C138.878 422.375 137.865 421.741 136.94 420.993C136.019 420.245 134.337 420.383 133.426 419.62C132.515 418.858 132.399 417.171 131.498 416.394C130.597 415.617 129.02 415.589 128.134 414.797C127.247 414.007 127.478 412 126.606 411.2C125.729 410.399 124.48 409.999 123.617 409.179C122.754 408.364 121.94 407.506 121.087 406.677C120.233 405.848 118.778 405.614 117.939 404.776C117.1 403.937 116.074 403.255 115.25 402.403C114.425 401.549 115.11 399.295 114.3 398.428C113.49 397.561 112.767 396.641 111.967 395.764C111.167 394.887 109.239 395.006 108.453 394.12C107.668 393.228 107.263 392.018 106.496 391.117C105.725 390.217 105.744 388.677 104.988 387.763C104.231 386.852 102.148 387.005 101.406 386.08C100.664 385.156 99.8781 384.255 99.1504 383.321C98.4226 382.387 97.5306 381.558 96.8173 380.614C96.1039 379.671 95.0533 378.951 94.3543 377.993C93.6553 377.035 93.6505 375.581 92.9663 374.614C92.2817 373.647 90.9705 373.094 90.3007 372.117C89.6305 371.14 88.7437 370.282 88.0931 369.296C87.4377 368.309 87.934 366.579 87.293 365.583C86.652 364.587 86.0057 363.596 85.3791 362.591C84.7577 361.585 84.4008 360.422 83.7933 359.407C83.1863 358.392 83.1236 357.072 82.5305 356.048C81.9378 355.023 79.518 355.013 78.9445 353.979C78.3662 352.945 78.2795 351.634 77.72 350.595C77.1609 349.557 76.5103 348.547 75.9656 347.498C75.4208 346.449 75.7006 344.986 75.1703 343.924C74.6452 342.866 74.9729 341.408 74.4617 340.34C73.951 339.273 73.6616 338.129 73.1653 337.052C72.6689 335.98 70.2347 335.765 69.7575 334.683C69.2804 333.602 70.2007 331.929 69.7379 330.837C69.2756 329.751 67.3813 329.241 66.9377 328.145C66.494 327.049 66.5664 325.743 66.1376 324.642C65.7083 323.541 64.9998 322.536 64.5902 321.43C64.1805 320.325 65.3806 318.652 64.9854 317.537C64.5949 316.422 62.4405 315.902 62.0644 314.782C61.6883 313.662 61.5729 312.452 61.216 311.322C60.8595 310.197 60.9127 308.944 60.5702 307.81C60.2281 306.681 59.9243 305.542 59.6014 304.403C59.2785 303.268 60.0786 301.839 59.7701 300.7C59.4663 299.561 57.114 298.941 56.8251 297.793C56.5358 296.649 57.2204 295.267 56.9502 294.114C56.6805 292.965 55.4559 292.022 55.2054 290.864C54.9548 289.711 56.6661 288.152 56.4299 286.994C56.1985 285.836 55.5718 284.768 55.3548 283.606C55.1378 282.448 53.1137 281.594 52.911 280.432C52.7136 279.269 53.8174 277.887 53.6388 276.72C53.4605 275.552 54.2462 274.256 54.0872 273.083C53.9233 271.915 51.6002 271.024 51.4555 269.852C51.3109 268.685 53.1041 267.288 52.9786 266.116C52.8535 264.943 51.8316 263.862 51.7253 262.685C51.6194 261.512 52.8243 260.235 52.7376 259.053C52.6461 257.876 50.5252 256.837 50.4576 255.655C50.3853 254.478 52.3471 253.196 52.294 252.014C52.2412 250.837 50.1251 249.732 50.0863 248.55C50.0528 247.373 49.9033 246.176 49.8841 244.995C49.865 243.813 52.3232 242.612 52.3232 241.425C52.3232 240.243 51.2965 239.066 51.3157 237.884C51.3348 236.703 52.1349 235.55 52.1737 234.368C52.2072 233.186 52.0822 232.013 52.1349 230.836C52.1881 229.654 50.9975 228.415 51.0699 227.238C51.1422 226.056 50.3565 224.808 50.448 223.631C50.5395 222.449 52.3907 221.414 52.5014 220.237C52.6073 219.06 53.3307 217.955 53.4557 216.782C53.5812 215.605 51.7061 214.209 51.8508 213.036C51.9955 211.865 54.1015 210.945 54.2654 209.777C54.4292 208.605 54.5787 207.451 54.7574 206.284C54.9356 205.116 54.5548 203.872 54.7574 202.71C54.9548 201.542 54.8633 200.336 55.0803 199.174C55.2969 198.011 55.0995 196.772 55.3309 195.613C55.5671 194.456 57.0469 193.56 57.2975 192.406C57.5481 191.253 56.7384 189.871 57.0082 188.723C57.2783 187.569 57.0373 186.297 57.3263 185.153C57.6156 184.005 58.1215 182.908 58.4253 181.77C58.729 180.626 60.1893 179.802 60.5126 178.667C60.8355 177.528 59.9435 176.051 60.286 174.917C60.6281 173.783 60.1318 172.386 60.4882 171.261C60.8451 170.132 61.4138 169.055 61.7899 167.935C62.1655 166.815 64.3012 166.281 64.6913 165.166C65.0865 164.051 65.3035 162.883 65.7131 161.778C66.1232 160.668 65.3854 159.133 65.8099 158.032C66.2387 156.931 66.7063 155.835 67.1547 154.739C67.5979 153.643 67.4388 152.285 67.9016 151.198C68.3644 150.107 70.3262 149.645 70.8034 148.563C71.2806 147.481 72.3456 146.666 72.8376 145.589C73.3339 144.512 71.7961 142.501 72.3072 141.434C72.818 140.366 73.3579 139.289 73.8834 138.231C74.4138 137.173 76.2693 136.763 76.814 135.715C77.3587 134.661 78.7179 134.042 79.277 133.003C79.8361 131.96 79.6818 130.544 80.2605 129.51C80.8388 128.476 81.2101 127.332 81.8027 126.308C82.3958 125.283 82.1017 123.739 82.7091 122.724C83.3162 121.709 83.7358 120.555 84.3577 119.55C84.9839 118.544 85.9866 117.753 86.6228 116.757C87.2638 115.761 88.9123 115.404 89.5682 114.418C90.2236 113.431 91.0189 112.545 91.6887 111.567C92.3589 110.591 93.1106 109.68 93.7952 108.713C94.4798 107.746 94.5181 106.326 95.2171 105.372C95.9161 104.414 96.7305 103.542 97.4487 102.594C98.1621 101.65 98.5913 100.483 99.319 99.5488C100.047 98.6146 100.698 97.6091 101.44 96.6844C102.182 95.7602 104.192 95.8505 104.949 94.9405C105.706 94.03 106.12 92.8481 106.891 91.9475C107.663 91.0469 108 89.7838 108.781 88.8927C109.567 88.0015 109.774 86.6055 110.574 85.7285C111.374 84.8516 111.803 83.622 112.613 82.7545C113.423 81.8875 115.64 82.3257 116.469 81.4729C117.293 80.6196 116.811 78.504 117.65 77.665C118.489 76.8263 120.484 77.1218 121.337 76.2926C122.186 75.4634 123.01 74.6152 123.873 73.8002C124.735 72.9852 124.677 71.1982 125.555 70.3927C126.432 69.5923 127.984 69.5158 128.876 68.7249C129.763 67.9339 130.597 67.0901 131.498 66.3134C132.399 65.5367 134.053 65.6463 134.969 64.8838C135.879 64.1213 135.465 61.7859 136.391 61.038C137.311 60.2897 138.362 59.6751 139.297 58.9409C140.232 58.2072 142.382 59.0123 143.326 58.2928C144.271 57.5733 144.204 55.5386 145.158 54.8332C146.113 54.1279 146.85 53.1082 147.819 52.417C148.788 51.7259 149.718 50.9634 150.697 50.2868C151.675 49.6099 152.437 48.5949 153.425 47.9373C154.413 47.275 156.095 47.6229 157.093 46.9748C158.09 46.3266 159.469 46.2694 160.477 45.6355C161.484 45.0016 161.662 43.0477 162.679 42.433C163.696 41.8183 164.979 41.6086 166.005 41.0081C167.032 40.4077 168.777 41.0272 169.813 40.441C170.849 39.8548 171.553 38.7063 172.599 38.1345C173.645 37.5626 175.048 37.6722 176.103 37.1194C177.154 36.5666 177.453 34.5841 178.513 34.0456C179.574 33.507 181.535 34.7509 182.61 34.2314C183.681 33.712 184.341 32.3824 185.421 31.8772C186.5 31.3721 186.833 29.2657 187.917 28.7748C189.002 28.284 190.631 28.9702 191.725 28.4984C192.819 28.0266 194.188 28.1982 195.287 27.7407C196.386 27.2832 196.883 25.3579 197.991 24.9194C199.1 24.481 200.768 25.4437 201.881 25.0195C202.995 24.5954 203.722 23.1514 204.846 22.7464C205.964 22.3413 206.981 21.6026 208.109 21.2118C209.237 20.8258 210.596 21.0832 211.729 20.7114C212.861 20.3397 213.748 19.1865 214.891 18.8338C216.028 18.4811 217.874 20.4207 219.021 20.0824C220.164 19.744 221.311 19.4962 222.458 19.1769C223.605 18.8576 224.521 17.7425 225.673 17.4422C226.825 17.142 227.611 15.4026 228.768 15.1214C229.924 14.8354 231.559 16.5273 232.725 16.2604C233.886 15.9935 234.875 15.0022 236.041 14.7497C237.208 14.5019 238.316 13.9872 239.487 13.7584C240.659 13.5297 241.984 14.1349 243.161 13.9205C244.332 13.706 245.58 13.9919 246.756 13.7965C247.932 13.6012 248.795 11.5043 249.976 11.328C251.157 11.1516 252.304 10.6751 253.49 10.513C254.671 10.351 256.016 11.4042 257.202 11.2613C258.382 11.1183 259.385 9.32641 260.575 9.19777C261.761 9.07386 263.014 9.45509 264.205 9.3455C265.391 9.24065 266.577 8.86893 267.767 8.78313C268.958 8.6926 270.254 10.0556 271.45 9.98409C272.64 9.91261 273.821 9.75055 275.016 9.69813C276.207 9.6457 277.378 8.92136 278.579 8.88798C279.769 8.85461 280.979 9.11197 282.174 9.09292C283.37 9.07386 284.575 9.84586 285.775 9.84586C286.97 9.84586 288.156 9.91734 289.351 9.93643C290.547 9.95549 291.767 8.83078 292.962 8.86893C294.157 8.9023 295.309 10.0937 296.5 10.1461C297.695 10.1985 298.842 10.8848 300.033 10.9562C301.228 11.0277 302.573 8.86416 303.759 8.94996C304.954 9.04049 306.183 8.87848 307.369 8.98329C308.559 9.08814 309.75 9.39789 310.936 9.52179C312.126 9.6457 313.143 11.2851 314.329 11.428C315.515 11.571 316.807 10.9038 317.988 11.0659C319.174 11.2279 320.499 10.5035 321.675 10.6846C322.856 10.8609 323.796 12.5813 324.972 12.7767C326.153 12.9721 327.156 14.0872 328.327 14.2969C329.503 14.5114 330.944 13.3009 332.116 13.5345C333.286 13.7679 334.299 14.7497 335.465 15.0022C336.632 15.25 338.131 14.0682 339.293 14.335C340.459 14.602 341.457 15.5741 342.619 15.8601C343.78 16.146 345.129 15.7171 346.286 16.0221C347.443 16.3223 348.668 16.4272 349.82 16.7465C350.971 17.0658 352.114 17.4661 353.256 17.8044C354.404 18.1428 354.886 20.6161 356.023 20.9688C357.166 21.3214 358.491 21.0641 359.624 21.4358C360.756 21.8075 361.87 22.2126 362.998 22.6034C364.126 22.9941 365.47 22.7749 366.589 23.18C367.712 23.5851 368.642 24.4953 369.755 24.9147C370.869 25.3388 372.479 24.5287 373.588 24.9671C374.696 25.4056 375.342 26.9782 376.441 27.4357C377.545 27.8932 378.485 28.7081 379.579 29.1799C380.673 29.6517 381.574 30.5286 382.659 31.0194C383.748 31.5103 385.353 30.8812 386.433 31.3864C387.513 31.8915 388.535 32.5206 389.605 33.04C390.675 33.5642 392.352 32.9209 393.413 33.4594C394.478 33.9979 394.719 36.1043 395.775 36.6619C396.83 37.2147 397.784 37.9343 398.831 38.5062C399.876 39.0781 401.795 38.1202 402.831 38.7063C403.867 39.2925 404.316 40.8985 405.342 41.499C406.369 42.0994 406.639 43.9294 407.656 44.5491C408.673 45.1684 410.312 44.7775 411.319 45.4114C412.327 46.0454 413.768 46.0166 414.765 46.6647C415.763 47.3128 416.361 48.5665 417.349 49.2288C418.337 49.8912 419.894 49.7436 420.873 50.4249C421.851 51.1018 423.013 51.5543 423.977 52.2454C424.946 52.9366 424.594 55.4048 425.548 56.1101C426.503 56.8155 427.992 56.8202 428.937 57.5402C429.882 58.2597 430.682 59.1603 431.617 59.894C432.552 60.6281 433.453 61.3907 434.379 62.1386C435.299 62.8869 436.365 63.4637 437.276 64.2262C438.186 64.9887 439.598 65.1793 440.5 65.956C441.402 66.7327 442.61 67.1761 443.499 67.967C444.383 68.758 444.283 70.6262 445.154 71.427C446.035 72.2274 446.745 73.1852 447.608 74.0002C448.471 74.8152 450.092 74.8582 450.942 75.6874C451.787 76.5166 452.284 77.6985 453.125 78.5419C453.961 79.3806 454.384 80.6149 455.208 81.4682C456.031 82.321 457.369 82.6926 458.18 83.5601C458.99 84.4276 460.232 84.9135 461.03 85.7905C461.827 86.6674 461.304 88.6974 462.089 89.5885C462.873 90.4797 464.93 90.2844 465.701 91.185C466.472 92.0856 467.632 92.6817 468.39 93.5965C469.148 94.5065 468.076 96.8801 468.817 97.7996C469.562 98.7243 470.83 99.2245 471.558 100.159C472.286 101.093 473.384 101.746 474.094 102.694C474.809 103.638 476.373 103.981 477.07 104.934C477.768 105.892 476.757 108.051 477.441 109.018C478.125 109.986 478.8 110.939 479.472 111.915C480.143 112.892 482.239 112.921 482.892 113.912C483.55 114.899 483.72 116.2 484.357 117.196C485.002 118.192 484.474 119.898 485.097 120.903C485.716 121.909 487.738 122.076 488.344 123.091C488.954 124.106 490.414 124.644 491.006 125.669C491.599 126.693 489.817 129.038 490.388 130.073C490.967 131.106 493.752 130.954 494.314 131.993C494.872 133.032 493.455 135.1 494 136.148C494.545 137.197 495.909 137.831 496.436 138.889C496.963 139.947 497.783 140.866 498.293 141.934C498.802 143.002 498.502 144.436 498.994 145.513C499.487 146.585 500.188 147.562 500.663 148.644C501.143 149.726 502.493 150.436 502.955 151.527C503.417 152.614 503.134 154.005 503.574 155.101C504.019 156.197 504.498 157.274 504.921 158.38C505.348 159.481 507.252 160.043 507.67 161.154C508.08 162.259 507.845 163.613 508.237 164.728C508.629 165.843 507.927 167.325 508.307 168.445C508.681 169.565 508.359 170.895 508.716 172.024C509.069 173.149 511.614 173.611 511.958 174.745C512.298 175.874 510.372 177.652 510.695 178.786C511.017 179.921 511.701 180.94 512.006 182.084C512.311 183.223 512.887 184.286 513.179 185.43C513.466 186.573 513.052 187.869 513.322 189.018C513.593 190.166 514.259 191.21 514.508 192.368C514.76 193.522 514.782 194.708 515.017 195.866C515.248 197.024 516.904 197.906 517.122 199.069C517.336 200.227 517.955 201.328 518.151 202.495C518.351 203.658 517.684 204.964 517.867 206.131C518.046 207.299 518.539 208.423 518.7 209.591C518.865 210.759 518.783 211.96 518.926 213.132C519.075 214.3 518.717 215.524 518.839 216.701C518.966 217.874 520.622 218.903 520.73 220.08C520.835 221.252 519.92 222.525 520.007 223.702C520.099 224.879 520.138 226.061 520.212 227.243C520.282 228.42 519.637 229.63 519.689 230.812C519.741 231.989 519.545 233.171 519.584 234.353C519.619 235.53 519.454 236.703 519.471 237.884C519.489 239.066 520.055 240.234 520.055 241.425Z" stroke="#F5CC82" stroke-opacity="0.4" stroke-width="1.7008" stroke-miterlimit="10"/>
<path d="M288.137 63.4546C288.581 64.5362 289.087 65.5654 289.424 66.6712C289.762 67.7864 290.147 68.8728 290.379 70.0069C290.61 71.1462 291.121 72.2467 291.251 73.4002C291.377 74.5533 291.29 75.7304 291.314 76.8933C291.338 78.0468 290.967 79.1904 290.89 80.3533C290.813 81.5064 290.904 82.6646 290.731 83.8177C290.562 84.9569 290.451 86.1147 290.191 87.254C289.935 88.3787 289.665 89.5081 289.328 90.628C288.99 91.7286 288.914 92.944 288.499 94.0398C288.089 95.1172 286.976 95.9176 286.489 96.985C286.012 98.0336 285.713 99.163 285.159 100.202C284.619 101.217 283.809 102.084 283.197 103.085C282.599 104.071 282.416 105.325 281.756 106.292C281.105 107.245 280.411 108.189 279.702 109.123C279.003 110.043 278.381 111.048 277.625 111.945C276.878 112.826 275.682 113.331 274.882 114.194C274.096 115.042 273.667 116.238 272.829 117.063C272.004 117.873 270.982 118.507 270.11 119.293C269.247 120.07 268.105 120.527 267.199 121.276C266.302 122.014 265.502 122.867 264.562 123.577C263.637 124.278 262.697 124.964 261.733 125.636C260.783 126.298 259.93 127.118 258.942 127.747C257.964 128.371 256.826 128.753 255.809 129.348C254.801 129.934 253.76 130.459 252.724 131.011C251.697 131.56 250.892 132.536 249.837 133.056C248.786 133.566 247.605 133.823 246.526 134.3C245.455 134.772 244.318 135.086 243.219 135.525C242.125 135.963 241.002 136.278 239.903 136.668C238.794 137.064 237.892 138.06 236.784 138.413C235.661 138.77 234.509 139.065 233.386 139.375C232.248 139.69 231.005 139.59 229.872 139.856C228.725 140.128 227.616 140.557 226.469 140.776C225.307 141 224.146 141.172 222.994 141.348C221.827 141.529 220.656 141.653 219.499 141.782C218.323 141.915 217.142 141.858 215.981 141.939C214.8 142.025 213.643 142.478 212.476 142.511C211.29 142.544 210.105 142.554 208.938 142.535C207.758 142.516 206.605 141.863 205.444 141.796C204.263 141.725 203.039 142.273 201.882 142.144C200.705 142.02 199.529 141.858 198.382 141.677C197.216 141.496 196.131 140.886 194.994 140.648C193.837 140.404 192.637 140.376 191.514 140.076C190.371 139.771 189.374 139.027 188.27 138.665C187.147 138.298 185.812 138.522 184.727 138.098C183.628 137.664 182.861 136.501 181.811 136.006C180.741 135.501 179.367 135.605 178.35 135.043C177.318 134.471 176.615 133.385 175.641 132.751C174.658 132.108 173.395 131.855 172.474 131.15C171.544 130.435 170.609 129.691 169.751 128.915C168.883 128.128 168.469 126.894 167.678 126.046C166.883 125.193 165.899 124.511 165.186 123.596C164.468 122.681 163.49 121.924 162.863 120.947C162.236 119.975 161.928 118.788 161.388 117.754C160.853 116.729 160.265 115.709 159.826 114.627C159.383 113.546 158.973 112.44 158.636 111.334C158.298 110.219 158.019 109.075 157.787 107.941C157.556 106.802 157.739 105.601 157.614 104.448C157.489 103.295 156.857 102.165 156.833 101.007C156.809 99.8541 157.431 98.7006 157.503 97.5381C157.58 96.3846 157.614 95.241 157.783 94.0876C157.951 92.9487 157.869 91.7526 158.13 90.6134C158.385 89.4887 158.848 88.407 159.185 87.2871C159.523 86.1861 159.98 85.1187 160.395 84.0228C160.805 82.9459 161.055 81.7924 161.542 80.7249C162.019 79.6764 162.608 78.6661 163.157 77.6275C163.697 76.6121 164.333 75.6354 164.945 74.6298C165.543 73.6432 166.112 72.6235 166.772 71.6558C167.423 70.7027 168.266 69.8783 168.975 68.9442C169.674 68.0246 170.57 67.2621 171.327 66.3662C172.074 65.4846 172.691 64.4932 173.491 63.6309C174.277 62.7824 174.87 61.7386 175.704 60.9193C176.528 60.109 177.415 59.3417 178.292 58.5555C179.155 57.7784 179.97 56.9303 180.876 56.1819C181.772 55.4435 182.611 54.6048 183.551 53.8947C184.476 53.1941 185.551 52.6651 186.52 51.9929C187.47 51.3306 188.492 50.7543 189.484 50.1203C190.463 49.4959 191.649 49.1909 192.665 48.5953C193.673 48.0091 194.439 46.9941 195.48 46.4363C196.507 45.8884 197.558 45.3594 198.614 44.8445C199.664 44.3349 200.802 43.9775 201.882 43.501C202.952 43.0292 203.988 42.4572 205.087 42.0187C206.181 41.5803 207.362 41.3849 208.461 40.9942C209.57 40.5986 210.668 40.1935 211.782 39.8408C212.905 39.4834 213.918 38.7543 215.041 38.4445C216.178 38.13 217.364 37.987 218.501 37.7202C219.648 37.4485 220.853 37.4342 221.996 37.2103C223.158 36.9863 224.305 36.7289 225.457 36.5526C226.623 36.3715 227.819 36.4859 228.98 36.3525C230.156 36.219 231.318 36.1427 232.48 36.0617C233.641 35.995 234.798 35.69 235.965 35.6567C237.15 35.6233 238.327 35.2754 239.493 35.2945C240.674 35.3136 241.845 35.7091 243.007 35.7758C244.188 35.8473 245.397 35.547 246.559 35.671C247.735 35.7949 248.796 36.7003 249.948 36.8814C251.114 37.0625 252.276 37.1483 253.413 37.3866C254.57 37.6296 255.809 37.4962 256.932 37.7964C258.074 38.1014 259.062 38.8734 260.166 39.2356C261.29 39.6026 262.49 39.7169 263.569 40.1459C264.668 40.5795 265.753 41.0227 266.803 41.5183C267.874 42.0235 268.818 42.7336 269.831 43.2958C270.862 43.8678 271.922 44.3586 272.892 44.9925C273.875 45.6359 274.81 46.327 275.731 47.0371C276.661 47.7519 277.495 48.557 278.357 49.3337C279.225 50.1204 280.184 50.8016 280.979 51.6502C281.775 52.503 282.204 53.6419 282.917 54.5571C283.636 55.4719 284.565 56.2155 285.192 57.1926C285.819 58.1646 286.624 59.051 287.164 60.0849C287.694 61.1098 287.694 62.3725 288.137 63.4546Z" stroke="#F5CC82" stroke-opacity="0.4" stroke-width="1.7008" stroke-miterlimit="10"/>
<path d="M251.08 35.3038C251.909 34.4412 252.801 33.6454 253.639 32.7971C254.478 31.9488 255.302 31.0815 256.155 30.2427C257.009 29.4088 257.886 28.5938 258.749 27.7694C259.611 26.945 260.513 26.1586 261.39 25.3485C262.267 24.5383 263.068 23.6472 263.959 22.8465C264.846 22.0459 265.781 21.2977 266.683 20.5114C267.584 19.7251 268.505 18.9626 269.415 18.1906C270.327 17.4185 271.286 16.6989 272.206 15.9412C273.132 15.1835 274.043 14.4067 274.978 13.6632C275.913 12.9198 276.838 12.1621 277.788 11.433C278.733 10.7038 279.644 9.92225 280.598 9.20264" stroke="#F5CC82" stroke-opacity="0.4" stroke-width="1.7008" stroke-miterlimit="10"/>
<path d="M273.667 470.483C272.746 469.73 271.985 468.797 271.078 468.036C270.168 467.27 269.464 466.285 268.562 465.507C267.666 464.733 265.829 464.999 264.943 464.208C264.055 463.417 264.089 461.632 263.217 460.832C262.34 460.032 260.508 460.234 259.65 459.421C258.787 458.608 258.093 457.606 257.245 456.781C256.391 455.959 256.324 454.351 255.485 453.512C254.647 452.673 253.548 452.097 252.719 451.25C251.889 450.402 250.366 450.196 249.552 449.34C248.737 448.476 249.277 446.381 248.477 445.512C247.672 444.639 245.768 444.756 244.978 443.874C244.187 442.992 243.806 441.754 243.025 440.859C242.249 439.969 241.117 439.371 240.35 438.463C239.584 437.56 238.716 436.73 237.964 435.818C237.212 434.902 236.171 434.21 235.434 433.285C234.691 432.361 234.981 430.64 234.253 429.704C233.525 428.77 231.823 428.566 231.11 427.622C230.397 426.678 230.378 425.22 229.674 424.267C228.97 423.314 229.004 421.846 228.315 420.883C227.625 419.921 225.822 419.73 225.147 418.758C224.473 417.786 224.367 416.432 223.706 415.451C223.046 414.469 222.338 413.525 221.687 412.534C221.036 411.548 220.94 410.218 220.303 409.222C219.667 408.226 218.756 407.411 218.13 406.406C217.508 405.4 216.091 404.871 215.479 403.86C214.871 402.85 214.167 401.883 213.57 400.863C212.972 399.843 212.278 398.871 211.695 397.842C211.112 396.812 210.307 395.897 209.738 394.863C209.169 393.829 208.783 392.685 208.229 391.642C207.675 390.598 207.12 389.545 206.576 388.496C206.031 387.448 206.065 386.109 205.535 385.051C205.004 383.998 204.903 382.735 204.388 381.672C203.872 380.609 203.245 379.604 202.739 378.536C202.233 377.469 201.037 376.716 200.546 375.644C200.054 374.571 200.691 373.003 200.213 371.922C199.736 370.844 198.493 370.092 198.025 369.01C197.562 367.923 197.779 366.56 197.326 365.474C196.873 364.382 196.372 363.32 195.933 362.229C195.494 361.132 194.926 360.093 194.501 358.993C194.077 357.892 192.511 357.21 192.096 356.105C191.687 354.999 192.115 353.588 191.715 352.478C191.315 351.368 191.175 350.171 190.785 349.056C190.399 347.941 189.696 346.936 189.32 345.816C188.949 344.696 188.611 343.566 188.25 342.442C187.888 341.317 186.698 340.445 186.351 339.32C186.004 338.196 187.295 336.585 186.963 335.45C186.63 334.321 184.683 333.644 184.36 332.51C184.037 331.376 183.897 330.184 183.593 329.046C183.285 327.907 182.929 326.772 182.63 325.633C182.335 324.494 183.714 322.936 183.434 321.792C183.15 320.649 182.688 319.557 182.417 318.409C182.148 317.26 180.721 316.374 180.466 315.225C180.21 314.077 179.526 313.009 179.285 311.856C179.038 310.703 178.894 309.521 178.663 308.368C178.431 307.214 179.304 305.842 179.087 304.684C178.87 303.526 177.337 302.601 177.13 301.438C176.923 300.28 177.178 299.032 176.985 297.869C176.792 296.706 177.545 295.396 177.361 294.228C177.178 293.065 176.672 291.95 176.503 290.783C176.334 289.615 176.045 288.467 175.891 287.299C175.737 286.131 174.869 285.05 174.725 283.877C174.58 282.71 175.101 281.456 174.966 280.289C174.835 279.116 175.043 277.911 174.922 276.738C174.802 275.566 174.498 274.413 174.392 273.24C174.286 272.068 173.963 270.91 173.867 269.738C173.775 268.565 173.963 267.369 173.881 266.192C173.799 265.015 173.052 263.881 172.985 262.704C172.917 261.527 173.794 260.302 173.736 259.125C173.679 257.948 173.221 256.789 173.177 255.612C173.134 254.436 173.389 253.248 173.361 252.072C173.327 250.895 173.77 249.713 173.751 248.531C173.732 247.354 172.358 246.191 172.348 245.014C172.339 243.837 172.965 242.655 172.97 241.473C172.975 240.296 173.202 239.119 173.221 237.941C173.24 236.764 173.939 235.602 173.968 234.425C173.997 233.248 173.693 232.066 173.732 230.889C173.775 229.711 173.548 228.525 173.606 227.348C173.659 226.171 172.878 224.95 172.941 223.773C173.009 222.596 173.495 221.443 173.577 220.266C173.654 219.089 174.609 217.978 174.701 216.806C174.792 215.629 174.363 214.419 174.465 213.246C174.57 212.074 174.421 210.873 174.536 209.701C174.652 208.528 174.695 207.346 174.826 206.174C174.956 205.002 174.286 203.734 174.431 202.566C174.57 201.394 176.508 200.446 176.662 199.278C176.816 198.111 176.392 196.867 176.556 195.704C176.72 194.536 177.583 193.474 177.761 192.311C177.94 191.143 176.802 189.781 176.99 188.618C177.183 187.455 177.39 186.287 177.592 185.129C177.795 183.966 177.641 182.737 177.853 181.579C178.07 180.421 179.68 179.52 179.911 178.367C180.137 177.209 179.058 175.793 179.299 174.64C179.54 173.487 180.374 172.453 180.625 171.3C180.88 170.146 182.114 169.217 182.379 168.068C182.644 166.92 182.49 165.681 182.769 164.537C183.049 163.389 183.324 162.25 183.613 161.106C183.902 159.962 183.685 158.695 183.989 157.555C184.292 156.417 185.256 155.459 185.575 154.319C185.893 153.181 186.341 152.094 186.674 150.96C187.001 149.826 186.105 148.344 186.447 147.214C186.789 146.085 187.782 145.151 188.134 144.026C188.486 142.901 189.209 141.896 189.575 140.776C189.942 139.656 190.554 138.622 190.93 137.511" stroke="#F5CC82" stroke-opacity="0.4" stroke-width="1.7008" stroke-miterlimit="10"/>
<path d="M291.106 66.0754C292.296 66.1227 293.439 67.1334 294.629 67.2001C295.82 67.2668 296.991 67.4762 298.177 67.5575C299.367 67.6431 300.63 66.733 301.816 66.8328C303.002 66.933 304.149 67.4809 305.335 67.6001C306.521 67.7192 307.701 67.8672 308.882 68.0052C310.068 68.1437 311.24 68.3437 312.42 68.5011C313.601 68.6533 314.849 68.3437 316.026 68.5153C317.207 68.6869 318.248 69.7019 319.424 69.8924C320.6 70.0834 321.959 69.2064 323.13 69.4111C324.302 69.6163 325.266 70.9551 326.437 71.1792C327.608 71.4033 328.867 71.1556 330.033 71.3938C331.199 71.6321 332.231 72.4755 333.392 72.7279C334.554 72.9856 335.759 73.0329 336.916 73.3047C338.073 73.5765 339.316 73.5047 340.469 73.7954C341.625 74.0861 342.623 74.9394 343.775 75.2443C344.927 75.5493 346.214 75.3398 347.361 75.6637C348.509 75.9875 349.617 76.4167 350.759 76.7548C351.902 77.0933 353.03 77.4554 354.167 77.8081C355.305 78.1607 356.51 78.2945 357.642 78.6661C358.775 79.0377 360.019 79.0759 361.147 79.4617C362.27 79.8479 363.383 80.2862 364.501 80.6866C365.62 81.087 366.482 82.1781 367.596 82.5974C368.709 83.0168 369.741 83.6176 370.849 84.0511C371.958 84.4846 373.423 84.0275 374.527 84.4752C375.631 84.9233 376.619 85.6429 377.713 86.1052C378.807 86.5675 380.022 86.7722 381.106 87.2488C382.196 87.7253 383.396 87.973 384.481 88.4642C385.56 88.9549 386.327 90.132 387.402 90.6374C388.477 91.1423 389.412 91.9238 390.482 92.448C391.552 92.9676 392.574 93.5632 393.634 94.097C394.695 94.6307 396.295 94.14 397.35 94.6879C398.406 95.2358 399.283 96.1175 400.329 96.6848C401.375 97.2516 402.488 97.7045 403.525 98.2812C404.561 98.858 405.419 99.7586 406.446 100.349C407.477 100.94 408.234 101.979 409.256 102.585C410.278 103.19 411.488 103.48 412.5 104.1C413.512 104.72 414.577 105.258 415.58 105.892C416.583 106.526 417.421 107.412 418.419 108.055C419.417 108.699 420.516 109.19 421.499 109.847C422.487 110.505 423.822 110.662 424.801 111.334C425.779 112.006 426.738 112.716 427.708 113.402C428.676 114.089 428.99 115.661 429.949 116.362C430.908 117.058 431.978 117.601 432.928 118.311C433.877 119.021 434.692 119.898 435.632 120.617C436.57 121.342 437.494 122.076 438.422 122.81C439.354 123.544 440.461 124.053 441.381 124.797C442.305 125.545 443.377 126.103 444.287 126.861C445.198 127.618 445.813 128.714 446.715 129.486C447.612 130.258 448.832 130.663 449.726 131.445C450.619 132.227 451.639 132.865 452.515 133.661C453.395 134.457 453.909 135.639 454.776 136.444C455.644 137.25 456.877 137.674 457.735 138.493C458.594 139.308 458.938 140.647 459.783 141.476C460.633 142.306 461.98 142.635 462.816 143.473C463.649 144.312 464.285 145.346 465.113 146.194C465.937 147.043 466.634 148.006 467.449 148.868C468.264 149.731 468.917 150.727 469.719 151.594C470.521 152.466 472.037 152.699 472.83 153.581C473.619 154.463 473.702 155.954 474.482 156.845C475.258 157.737 476.761 158.018 477.528 158.924C478.295 159.824 478.927 160.844 479.676 161.759C480.43 162.669 480.587 164.056 481.332 164.98C482.073 165.9 483.01 166.668 483.738 167.602C484.466 168.531 485.712 169.079 486.427 170.018C487.141 170.956 486.841 172.644 487.538 173.597C488.244 174.545 489.765 174.907 490.457 175.87C491.146 176.828 491.529 178.005 492.205 178.972C492.88 179.94 493.817 180.74 494.48 181.717C495.142 182.694 495.878 183.633 496.528 184.62C497.181 185.606 498.035 186.469 498.672 187.465C499.308 188.461 499.186 189.924 499.805 190.929C500.428 191.935 501.761 192.516 502.371 193.527C502.977 194.537 503.069 195.852 503.666 196.872C504.258 197.892 504.315 199.212 504.89 200.241C505.47 201.271 506.864 201.857 507.426 202.891C507.993 203.925 508.137 205.183 508.686 206.227C509.235 207.27 509.819 208.295 510.355 209.348C510.886 210.401 511.022 211.645 511.544 212.703C512.063 213.761 512.782 214.719 513.288 215.786C513.793 216.854 514.874 217.659 515.366 218.732C515.859 219.804 516.408 220.857 516.883 221.934C517.358 223.016 517.902 224.074 518.36 225.16C518.817 226.247 519.432 227.281 519.876 228.373C520.321 229.464 520.626 230.622 521.053 231.718C521.484 232.819 521.903 233.929 522.317 235.035" stroke="#F5CC82" stroke-opacity="0.4" stroke-width="1.7008" stroke-miterlimit="10"/>
<path d="M52.4727 204.826C53.0169 203.782 53.2871 202.6 53.8462 201.566C54.4053 200.532 55.3117 199.688 55.8852 198.664C56.4587 197.639 57.0613 196.634 57.6492 195.614C58.2375 194.599 58.4976 193.388 59.1003 192.383C59.7026 191.372 60.6713 190.581 61.2883 189.581C61.9054 188.58 62.5464 187.598 63.1778 186.607C63.8093 185.616 64.1518 184.443 64.7976 183.461C65.4434 182.48 66.1328 181.522 66.793 180.55C67.4532 179.577 68.2485 178.696 68.9235 177.733C69.5985 176.771 70.0513 175.651 70.7359 174.698C71.4253 173.745 72.0615 172.749 72.7653 171.805C73.4638 170.861 74.192 169.927 74.9053 168.993C75.6187 168.059 76.2933 167.087 77.0215 166.162C77.7492 165.238 78.7323 164.509 79.4749 163.599C80.217 162.683 80.8 161.645 81.5522 160.739C82.3039 159.834 83.3981 159.209 84.1646 158.318C84.9312 157.422 85.5914 156.445 86.3723 155.564C87.1484 154.682 87.9149 153.786 88.7054 152.914C89.4959 152.042 90.0694 150.974 90.8742 150.112C91.6743 149.249 92.4648 148.372 93.2793 147.52C94.0941 146.666 95.1112 146.009 95.9353 145.17C96.7598 144.331 97.4731 143.378 98.3116 142.549C99.1504 141.72 100.081 140.981 100.929 140.166C101.777 139.346 102.457 138.35 103.315 137.545C104.173 136.74 105.031 135.925 105.903 135.129C106.776 134.333 107.672 133.561 108.554 132.779C109.436 131.998 110.357 131.254 111.249 130.482C112.14 129.71 113.037 128.943 113.938 128.181C114.84 127.423 116.035 127.008 116.946 126.26C117.857 125.512 118.812 124.821 119.732 124.082C120.653 123.348 121.284 122.252 122.219 121.528C123.15 120.803 124.215 120.246 125.155 119.536C126.095 118.826 127.049 118.125 127.999 117.429C128.948 116.729 129.922 116.062 130.881 115.375C131.84 114.689 132.674 113.827 133.648 113.155C134.617 112.483 135.817 112.139 136.795 111.477C137.774 110.815 138.473 109.743 139.461 109.094C140.449 108.446 141.736 108.251 142.734 107.617C143.732 106.983 144.609 106.163 145.611 105.544C146.614 104.924 147.776 104.553 148.788 103.943C149.8 103.337 150.764 102.647 151.781 102.056C152.803 101.46 153.738 100.726 154.769 100.149C155.801 99.5728 156.963 99.2296 157.999 98.6624" stroke="#F5CC82" stroke-opacity="0.4" stroke-width="1.7008" stroke-miterlimit="10"/>
<path d="M285.862 102.546C286.903 103.114 287.703 104.1 288.739 104.677C289.776 105.253 291.304 104.972 292.335 105.558C293.362 106.144 294.056 107.312 295.078 107.908C296.099 108.503 297.43 108.594 298.447 109.199C299.464 109.804 300.549 110.309 301.561 110.924C302.573 111.539 302.867 113.302 303.875 113.922C304.882 114.546 306.058 114.889 307.06 115.523C308.058 116.157 309.476 116.162 310.468 116.8C311.461 117.444 311.91 118.907 312.898 119.56C313.886 120.212 314.831 120.918 315.814 121.58C316.797 122.238 317.78 122.886 318.759 123.558C319.733 124.225 320.759 124.816 321.733 125.498C322.702 126.174 323.825 126.637 324.789 127.328C325.753 128.014 326.539 128.938 327.493 129.634C328.452 130.33 329.556 130.821 330.505 131.526C331.455 132.231 332.757 132.479 333.701 133.189C334.646 133.899 335.523 134.705 336.463 135.424C337.403 136.144 338.174 137.078 339.105 137.807C340.035 138.536 341.172 139.013 342.098 139.751C343.023 140.49 343.525 141.739 344.445 142.482C345.361 143.226 346.455 143.764 347.366 144.517C348.277 145.27 349.034 146.204 349.935 146.966C350.842 147.729 352.311 147.839 353.208 148.611C354.105 149.383 354.996 150.164 355.888 150.946C356.78 151.723 357.734 152.433 358.621 153.219C359.503 154.005 360.255 154.939 361.132 155.735C362.01 156.531 363.012 157.193 363.885 157.994C364.752 158.795 364.897 160.363 365.76 161.173C366.623 161.983 368.127 162.126 368.979 162.946C369.833 163.76 369.886 165.39 370.734 166.215C371.582 167.039 372.378 167.907 373.216 168.736C374.055 169.57 375.034 170.256 375.868 171.095C376.696 171.934 377.714 172.591 378.538 173.439C379.362 174.288 379.95 175.351 380.765 176.203C381.579 177.057 383.213 177.156 384.023 178.019C384.833 178.882 385.464 179.906 386.264 180.774C387.065 181.641 387.277 183.033 388.072 183.91C388.862 184.786 389.427 185.854 390.212 186.735C390.998 187.617 392.415 187.951 393.191 188.842C393.967 189.733 394.589 190.753 395.355 191.654C396.121 192.549 396.502 193.765 397.264 194.67C398.025 195.576 399.288 196.062 400.04 196.972C400.792 197.882 401.722 198.654 402.465 199.569C403.207 200.484 404.084 201.304 404.822 202.224C405.555 203.148 406.302 204.068 407.029 205.002C407.757 205.931 407.762 207.409 408.48 208.343C409.199 209.281 409.613 210.435 410.322 211.378C411.03 212.322 412.857 212.451 413.556 213.404C414.255 214.352 413.773 216.148 414.462 217.107C415.151 218.064 415.874 218.989 416.559 219.952C417.243 220.914 418.983 221.148 419.653 222.12C420.328 223.087 420.275 224.546 420.936 225.523C421.601 226.5 423.008 226.981 423.664 227.963C424.319 228.944 424.763 230.064 425.408 231.051C426.054 232.037 425.799 233.591 426.435 234.587C427.071 235.578 428.749 235.926 429.37 236.927C429.997 237.927 429.607 239.538 430.224 240.544C430.841 241.55 432.258 242.079 432.865 243.089C433.472 244.099 433.121 245.667 433.713 246.682C434.311 247.697 434.904 248.707 435.487 249.732C436.077 250.752 437.154 251.495 437.733 252.524C438.313 253.554 438.906 254.564 439.472 255.598C440.043 256.632 440.535 257.7 441.093 258.739C441.651 259.778 442.906 260.455 443.451 261.498C443.995 262.542 443.655 264.033 444.191 265.082C444.727 266.13 445.194 267.207 445.721 268.261C446.244 269.314 447.652 269.943 448.17 271.001C448.684 272.059 448.24 273.565 448.745 274.632C449.255 275.695 449.708 276.777 450.196 277.844C450.689 278.912 451.987 279.622 452.467 280.694C452.951 281.766 453.334 282.886 453.805 283.963C454.275 285.04 454.384 286.275 454.846 287.356C455.304 288.438 456.415 289.258 456.864 290.344C457.313 291.431 457.931 292.46 458.367 293.552C458.807 294.643 459.204 295.758 459.627 296.854C460.049 297.95 460.62 299.003 461.034 300.104C461.448 301.205 461.108 302.587 461.505 303.693C461.91 304.798 462.803 305.732 463.2 306.843C463.588 307.953 462.938 309.416 463.313 310.526C463.697 311.642 464.403 312.638 464.773 313.758C465.139 314.873 465.566 315.974 465.915 317.094C466.272 318.214 467.344 319.119 467.688 320.244C468.033 321.368 468.447 322.479 468.773 323.608C469.109 324.738 468.765 326.057 469.083 327.187C469.401 328.317 470.124 329.346 470.429 330.48C470.73 331.614 470.73 332.834 471.026 333.968C471.318 335.108 472.238 336.099 472.517 337.238C472.796 338.377 473.114 339.52 473.38 340.664C473.65 341.808 473.837 342.976 474.09 344.124C474.347 345.273 474.469 346.455 474.709 347.603C474.948 348.752 475.192 349.909 475.419 351.063C475.646 352.216 474.752 353.579 474.97 354.732C475.184 355.885 475.24 357.062 475.441 358.221C475.646 359.379 477.023 360.341 477.214 361.499C477.402 362.657 477.075 363.901 477.249 365.064C477.423 366.227 477.572 367.39 477.737 368.553C477.898 369.715 477.986 370.887 478.134 372.055" stroke="#F5CC82" stroke-opacity="0.4" stroke-width="1.7008" stroke-miterlimit="10"/>
<path d="M136.222 63.073C137.455 63.1113 138.685 63.1969 139.918 63.2493C141.152 63.3018 142.386 63.3255 143.615 63.3874C144.849 63.4545 146.084 63.4446 147.312 63.5259C148.542 63.6067 149.766 63.8067 150.995 63.8975C152.224 63.9929 153.458 64.0355 154.687 64.1452C155.916 64.2549 157.141 64.3787 158.37 64.5026C159.599 64.6265 160.833 64.6884 162.057 64.8269C163.281 64.9649 164.501 65.1649 165.725 65.3176C166.95 65.4703 168.189 65.5081 169.413 65.675" stroke="#F5CC82" stroke-opacity="0.4" stroke-width="1.7008" stroke-miterlimit="10"/>
<path d="M282.628 53.1076C283.779 52.8505 284.922 52.5455 286.079 52.3073C287.235 52.0643 288.364 51.6875 289.525 51.4639C290.687 51.2398 291.921 51.4161 293.082 51.2063C294.244 50.9968 295.319 50.2915 296.485 50.101C297.652 49.91 298.905 50.2485 300.072 50.0674C301.243 49.8911 302.298 48.9569 303.47 48.7948C304.641 48.6331 305.822 48.4993 306.993 48.3565C308.164 48.2138 309.384 48.4185 310.56 48.2899C311.736 48.1613 312.927 48.1944 314.103 48.08C315.279 47.9656 316.436 47.594 317.612 47.4985C318.788 47.4035 320.007 47.8228 321.188 47.7372C322.369 47.6559 323.531 47.3274 324.712 47.2603C325.893 47.1936 327.059 46.7936 328.24 46.7412C329.421 46.6934 330.626 47.3415 331.807 47.3033C332.988 47.2654 334.164 47.1033 335.345 47.0839C336.526 47.065 337.707 47.0031 338.888 46.9983C340.068 46.9936 341.249 47.065 342.43 47.0792C343.611 47.0938 344.792 47.0839 345.973 47.1127C347.154 47.1411 348.354 46.6457 349.535 46.6887C350.716 46.7313 351.873 47.3321 353.054 47.3893C354.235 47.4512 355.416 47.4224 356.597 47.4985C357.778 47.5751 358.964 47.5273 360.145 47.6177C361.325 47.7084 362.506 47.7656 363.682 47.8753C364.858 47.9849 366.03 48.1707 367.206 48.2946C368.382 48.4185 369.553 48.5759 370.725 48.7139C371.901 48.852 373.144 48.4709 374.315 48.6236C375.487 48.7759 376.562 49.6193 377.733 49.7909C378.904 49.9625 380.148 49.6433 381.314 49.8291C382.481 50.0149 383.594 50.5345 384.76 50.7345C385.927 50.9349 387.06 51.2777 388.226 51.497C389.393 51.7163 390.506 52.1404 391.663 52.3739C392.82 52.6075 394.011 52.6836 395.162 52.9313C396.319 53.1795 397.553 53.0698 398.705 53.3365C399.857 53.5988 400.879 54.3897 402.026 54.6663C403.174 54.9475 404.383 54.9665 405.531 55.2619C406.673 55.5574 407.805 55.9006 408.943 56.2103C410.081 56.5199 411.305 56.5393 412.442 56.8631C413.58 57.1874 414.631 57.7878 415.763 58.1306C416.896 58.4738 418.198 58.2785 419.321 58.6359C420.448 58.9933 421.451 59.7223 422.574 60.0943C423.698 60.4659 424.926 60.5278 426.045 60.9141C427.158 61.2998 428.301 61.6336 429.414 62.0387C430.523 62.4439 431.357 63.578 432.46 63.9973C433.564 64.4166 434.73 64.6644 435.829 65.0979C436.927 65.5318 438.191 65.5748 439.28 66.0226" stroke="#F5CC82" stroke-opacity="0.4" stroke-width="1.7008" stroke-miterlimit="10"/>
<path d="M106.848 392.714C106.409 391.613 106.549 390.288 106.13 389.183C105.71 388.077 105.995 386.719 105.59 385.604C105.185 384.489 103.469 383.836 103.083 382.716C102.693 381.596 103.512 380.08 103.136 378.956C102.765 377.831 101.883 376.873 101.531 375.744C101.175 374.615 100.047 373.714 99.7091 372.579C99.3718 371.445 99.4925 370.173 99.1692 369.034C98.8463 367.895 98.5813 366.737 98.2728 365.593C97.9643 364.449 97.362 363.377 97.0727 362.229C96.7833 361.08 96.2482 359.984 95.9785 358.831C95.7039 357.677 96.7929 356.219 96.5376 355.066C96.2822 353.913 95.8482 352.802 95.6072 351.64C95.3662 350.481 94.0554 349.528 93.8336 348.37C93.607 347.208 93.8815 345.949 93.6745 344.787C93.4671 343.624 93.4623 342.423 93.2697 341.255C93.0766 340.088 92.1515 339.03 91.9776 337.857C91.8042 336.69 92.7585 335.355 92.5995 334.183C92.4404 333.011 91.8574 331.895 91.7127 330.723C91.568 329.551 91.1871 328.402 91.0621 327.225C90.9366 326.048 91.6887 324.79 91.5776 323.613C91.4669 322.436 90.5849 321.325 90.4934 320.148C90.3966 318.971 90.0594 317.804 89.9822 316.627C89.9051 315.445 89.6354 314.272 89.5726 313.091C89.5099 311.909 90.4834 310.679 90.4354 309.497C90.3871 308.315 89.3796 307.162 89.346 305.98C89.3172 304.798 89.7077 303.602 89.6929 302.42C89.6785 301.238 90.3727 300.052 90.3727 298.87C90.3727 297.688 89.1386 296.497 89.1582 295.31C89.1774 294.128 90.2524 292.965 90.286 291.783C90.3195 290.602 89.5194 289.391 89.5678 288.209C89.6158 287.028 89.5486 285.836 89.6157 284.654C89.6785 283.472 91.12 282.376 91.202 281.194C91.2839 280.013 90.7052 278.792 90.7967 277.615C90.8934 276.438 90.3679 275.199 90.4786 274.022C90.5897 272.845 91.8669 271.782 91.9972 270.605C92.1223 269.428 91.6308 268.189 91.7706 267.012C91.9153 265.84 91.6839 264.615 91.843 263.442C92.002 262.27 91.9345 261.06 92.1079 259.892C92.2814 258.72 93.1634 257.657 93.3516 256.489C93.5394 255.322 93.6841 254.15 93.8915 252.982C94.0985 251.814 94.7396 250.733 94.9614 249.57C95.1832 248.407 95.6508 247.301 95.8869 246.143C96.1231 244.985 95.8242 243.722 96.0748 242.565C96.3253 241.406 97.0003 240.348 97.2653 239.195C97.5307 238.042 96.7014 236.631 96.9812 235.483C97.2653 234.334 97.6222 233.195 97.9211 232.052C98.2196 230.908 99.3574 229.979 99.6708 228.839C99.9841 227.696 99.3431 226.295 99.6708 225.156C99.9985 224.017 101.362 223.178 101.705 222.048C102.047 220.914 101.859 219.623 102.22 218.498C102.577 217.369 103.768 216.511 104.139 215.386C104.515 214.262 104.009 212.851 104.395 211.731C104.785 210.611 105.06 209.453 105.464 208.338C105.869 207.223 106.785 206.298 107.204 205.188C107.624 204.082 107.957 202.943 108.39 201.842C108.824 200.742 109.017 199.545 109.47 198.449C109.918 197.353 111.037 196.533 111.499 195.442C111.962 194.351 111.591 192.912 112.073 191.825C112.555 190.743 113.904 190.048 114.401 188.97C114.898 187.893 114.141 186.245 114.652 185.172C115.162 184.1 115.717 183.042 116.242 181.979C116.767 180.917 117.857 180.126 118.397 179.068C118.937 178.01 119.732 177.085 120.286 176.037C120.841 174.988 120.98 173.721 121.549 172.682C122.118 171.643 123.492 171.042 124.08 170.008C124.663 168.974 124.856 167.73 125.453 166.705C126.051 165.681 126.128 164.351 126.741 163.336C127.352 162.321 129.03 161.945 129.657 160.939C130.283 159.934 130.703 158.804 131.344 157.808C131.985 156.812 132.548 155.773 133.209 154.782C133.865 153.796 134.621 152.881 135.291 151.899C135.961 150.922 136.592 149.926 137.282 148.954C137.966 147.986 137.88 146.471 138.579 145.513C139.277 144.555 140.772 144.169 141.485 143.221C142.198 142.273 142.777 141.229 143.505 140.295C144.232 139.356 144.777 138.279 145.52 137.354C146.262 136.425 146.951 135.458 147.708 134.543C148.465 133.628 149.327 132.798 150.094 131.893C150.865 130.988 151.675 130.12 152.455 129.229C153.236 128.338 153.313 126.818 154.109 125.936C154.904 125.054 156.62 124.992 157.43 124.12C158.24 123.253 158.399 121.776 159.223 120.918C160.047 120.06 161.305 119.612 162.144 118.764" stroke="#F5CC82" stroke-opacity="0.4" stroke-width="1.7008" stroke-miterlimit="10"/>
<path d="M244.462 132.079C244.93 133.156 244.949 134.428 245.417 135.505C245.884 136.582 246.492 137.607 246.959 138.684C247.427 139.761 246.969 141.238 247.436 142.315C247.904 143.393 248.266 144.522 248.733 145.599C249.2 146.676 250.454 147.424 250.921 148.501C251.389 149.578 251.49 150.817 251.962 151.894C252.43 152.971 252.502 154.22 252.97 155.302C253.437 156.378 255.231 156.898 255.698 157.975C256.166 159.052 256.498 160.191 256.966 161.268C257.433 162.345 257.857 163.446 258.325 164.523C258.793 165.6 258.339 167.073 258.807 168.155C259.275 169.231 260.735 169.889 261.207 170.971C261.675 172.048 261.492 173.406 261.959 174.483C262.427 175.56 262.403 176.852 262.87 177.929C263.338 179.006 265.174 179.506 265.642 180.583C266.11 181.66 265.396 183.242 265.868 184.324C266.336 185.401 266.62 186.559 267.093 187.641C267.56 188.718 269.343 189.242 269.811 190.319C270.279 191.396 270.683 192.507 271.151 193.583C271.619 194.661 271.942 195.804 272.409 196.881C272.877 197.958 272.737 199.298 273.209 200.374C273.677 201.452 274.318 202.462 274.785 203.539C275.253 204.616 275.677 205.717 276.145 206.794C276.613 207.871 276.41 209.238 276.878 210.316C277.345 211.393 277.865 212.451 278.333 213.532C278.801 214.609 280.734 215.067 281.201 216.149C281.669 217.226 280.618 218.951 281.085 220.033C281.553 221.11 283.038 221.758 283.505 222.84C283.973 223.921 283.51 225.394 283.978 226.471C284.445 227.548 285.737 228.282 286.204 229.359C286.672 230.436 286.339 231.856 286.812 232.938C287.284 234.02 287.636 235.144 288.103 236.221C288.571 237.299 290.162 237.904 290.634 238.981C291.102 240.058 291.911 240.992 292.384 242.073C292.851 243.151 292.35 244.647 292.818 245.724C293.285 246.801 293.194 248.121 293.661 249.198C294.128 250.275 295.377 251.023 295.849 252.105C296.317 253.182 296.279 254.478 296.746 255.56C297.214 256.642 297.609 257.752 298.076 258.829C298.544 259.906 299.055 260.969 299.522 262.051C299.99 263.128 301.72 263.671 302.188 264.753C302.655 265.83 302.024 267.379 302.491 268.456C302.959 269.533 304.487 270.162 304.955 271.244C305.422 272.321 305.904 273.398 306.377 274.475C306.844 275.552 306.883 276.815 307.35 277.897C307.818 278.974 308.126 280.122 308.594 281.204C309.062 282.286 309.187 283.511 309.654 284.587C310.122 285.664 310.073 286.965 310.546 288.043C311.013 289.12 311.823 290.058 312.291 291.135C312.758 292.212 313.284 293.27 313.751 294.347C314.219 295.425 315.005 296.373 315.472 297.45C315.94 298.527 316.846 299.423 317.318 300.5C317.79 301.577 317.395 303.025 317.863 304.103C318.33 305.18 319.743 305.861 320.21 306.938C320.678 308.015 321.584 308.911 322.051 309.988C322.519 311.065 321.348 312.843 321.815 313.925C322.283 315.001 323.951 315.574 324.418 316.65C324.886 317.727 325.218 318.867 325.691 319.944C326.158 321.02 326.346 322.221 326.814 323.299C327.281 324.376 327.773 325.448 328.241 326.525C328.708 327.602 329.407 328.583 329.874 329.665C330.342 330.747 331.35 331.595 331.817 332.672C332.285 333.75 332.381 334.989 332.849 336.066C333.316 337.142 334.044 338.134 334.511 339.215C334.979 340.297 334.791 341.651 335.264 342.733C335.736 343.814 335.403 345.23 335.871 346.311C336.338 347.393 338.31 347.832 338.777 348.909C339.245 349.986 338.358 351.644 338.83 352.721C339.298 353.798 340.353 354.632 340.821 355.709C341.289 356.786 342.638 357.497 343.106 358.573C343.573 359.65 343.535 360.947 344.002 362.028C344.47 363.106 344.884 364.211 345.357 365.288C345.824 366.365 346.634 367.304 347.101 368.381C347.569 369.458 348.312 370.416 348.784 371.493C349.251 372.57 348.23 374.286 348.702 375.363C349.17 376.439 349.844 377.436 350.312 378.512C350.779 379.59 352.433 380.166 352.9 381.248C353.368 382.325 353.3 383.636 353.768 384.713C354.235 385.79 354.496 386.962 354.963 388.039C355.431 389.116 356.708 389.855 357.176 390.932C357.643 392.009 356.891 393.61 357.359 394.687C357.826 395.764 358.766 396.646 359.234 397.723C359.701 398.8 360.439 399.767 360.906 400.844C361.374 401.921 360.901 403.403 361.369 404.48C361.837 405.557 363.148 406.282 363.615 407.359C364.083 408.436 364.825 409.403 365.293 410.48C365.76 411.557 366.444 412.549 366.912 413.626C367.38 414.702 366.743 416.251 367.216 417.333C367.688 418.415 369.202 419.044 369.669 420.126C370.137 421.203 370.161 422.471 370.628 423.552C371.096 424.634 370.812 426.03 371.279 427.107C371.747 428.184 373.555 428.699 374.022 429.776C374.489 430.851 373.829 432.417 374.301 433.492C374.769 434.571 376.143 435.268 376.61 436.348C377.078 437.431 377.68 438.451 378.153 439.526C378.625 440.605 377.618 442.309 378.09 443.388C378.558 444.463 379.748 445.242 380.216 446.317C380.683 447.396 381.835 448.188 382.303 449.263C382.77 450.338 381.989 451.951 382.457 453.03" stroke="#F5CC82" stroke-opacity="0.4" stroke-width="1.7008" stroke-miterlimit="10"/>
<path d="M197.712 26.1201C198.251 27.3687 198.671 28.4505 199.085 29.3941C199.63 30.6427 200.064 31.6864 200.478 32.6442C200.96 33.7498 201.375 34.7554 201.857 35.861C202.271 36.8141 202.782 37.8149 203.327 39.0587C203.741 40.0071 204.185 41.0889 204.73 42.347" stroke="#F5CC82" stroke-opacity="0.4" stroke-width="1.7008" stroke-miterlimit="10"/>
<path d="M440.004 64.2402C440.44 65.3408 442.261 65.9223 442.649 67.0328C443.045 68.148 443.167 69.3629 443.516 70.4876C443.869 71.6127 443.455 72.9563 443.764 74.0904C444.074 75.2297 444.51 76.3208 444.775 77.4648C445.041 78.6131 444.558 79.8905 444.784 81.0482C445.011 82.2065 447.076 83.0404 447.259 84.2033C447.442 85.3658 447.316 86.5954 447.455 87.7678C447.595 88.9355 447.939 90.1079 448.035 91.2803C448.131 92.4523 448.423 93.644 448.484 94.8207C448.541 95.9931 447.591 97.218 447.612 98.3951C447.63 99.5675 446.719 100.73 446.693 101.907C446.671 103.08 447.856 104.29 447.795 105.467C447.73 106.64 446.235 107.707 446.135 108.884C446.035 110.052 447.525 111.377 447.386 112.544C447.251 113.712 446.148 114.755 445.978 115.923C445.804 117.081 447.05 118.482 446.841 119.64C446.632 120.793 446.466 121.989 446.227 123.143C445.987 124.291 444.183 125.106 443.904 126.25C443.629 127.389 443.054 128.442 442.753 129.581C442.448 130.711 443.817 132.317 443.481 133.446C443.141 134.571 442.897 135.752 442.531 136.872C442.165 137.988 440.928 138.831 440.535 139.947C440.139 141.052 439.302 141.996 438.875 143.101C438.457 144.197 438.139 145.332 437.685 146.423C437.237 147.504 435.968 148.239 435.493 149.32C435.02 150.392 435.377 151.827 434.876 152.899C434.379 153.962 433.849 155.015 433.323 156.073C432.803 157.126 432.239 158.156 431.69 159.204C431.145 160.243 431.246 161.635 430.673 162.673C430.103 163.703 429.848 164.927 429.255 165.952C428.667 166.967 427.072 167.42 426.46 168.43C425.852 169.436 425.876 170.837 425.24 171.838C424.609 172.829 423.119 173.286 422.464 174.273C421.818 175.255 420.96 176.094 420.29 177.07C419.625 178.038 418.805 178.896 418.116 179.858C417.432 180.816 418.227 182.837 417.518 183.785C416.815 184.729 416.169 185.744 415.441 186.683C414.723 187.617 412.833 187.664 412.096 188.594C411.358 189.513 411.089 190.805 410.332 191.72C409.579 192.63 408.707 193.445 407.936 194.346C407.174 195.237 405.888 195.689 405.107 196.576C404.331 197.457 403.863 198.611 403.068 199.483C402.277 200.35 400.735 200.531 399.92 201.394C399.115 202.252 399.144 203.882 398.32 204.734C397.501 205.578 396.054 205.817 395.216 206.655C394.382 207.489 393.538 208.299 392.69 209.124C391.842 209.944 391.524 211.297 390.656 212.107C389.798 212.917 389.644 214.48 388.767 215.281C387.894 216.077 385.817 215.572 384.93 216.358C384.048 217.144 383.807 218.641 382.91 219.417C382.018 220.189 380.876 220.685 379.97 221.447C379.064 222.205 378.914 223.868 377.993 224.621C377.078 225.37 376.157 226.137 375.227 226.875C374.301 227.61 372.952 227.834 372.007 228.563C371.072 229.287 369.544 229.254 368.594 229.969C367.649 230.679 366.975 231.746 366.016 232.447C365.061 233.147 364.661 234.61 363.692 235.296C362.728 235.983 361.596 236.445 360.622 237.122C359.653 237.794 358.92 238.833 357.932 239.495C356.954 240.157 355.667 240.386 354.674 241.039C353.686 241.687 352.654 242.292 351.652 242.931C350.654 243.57 348.827 242.912 347.815 243.541C346.807 244.165 346.875 246.505 345.858 247.12C344.846 247.735 343.549 247.906 342.522 248.512C341.5 249.112 339.953 248.831 338.917 249.422C337.885 250.013 337.731 252.129 336.69 252.71C335.654 253.287 334.179 253.105 333.128 253.673C332.087 254.235 331.031 254.788 329.976 255.34C328.925 255.894 328.086 256.861 327.026 257.404C325.97 257.942 325.112 258.901 324.042 259.43C322.977 259.959 321.425 259.529 320.35 260.049C319.28 260.564 318.065 260.793 316.981 261.297C315.906 261.798 314.846 262.337 313.761 262.827C312.676 263.318 311.813 264.295 310.719 264.772C309.63 265.253 307.929 264.343 306.825 264.815C305.726 265.282 304.752 266.015 303.644 266.473C302.54 266.926 301.976 268.679 300.862 269.123C299.749 269.566 298.698 270.19 297.575 270.619C296.462 271.048 295.411 271.658 294.302 272.077C293.184 272.492 291.675 271.863 290.557 272.268C289.434 272.673 288.354 273.178 287.231 273.569C286.103 273.96 285.255 275.151 284.127 275.528C282.994 275.904 281.659 275.68 280.526 276.047C279.388 276.414 277.952 275.823 276.82 276.176C275.682 276.528 274.727 277.463 273.59 277.801C272.448 278.139 271.185 278.063 270.043 278.387C268.896 278.711 268.172 280.522 267.025 280.837C265.873 281.151 264.191 279.497 263.044 279.797C261.887 280.098 261.13 281.909 259.978 282.195C258.821 282.481 257.785 283.305 256.633 283.577C255.466 283.848 254.208 283.748 253.047 284.006C251.88 284.263 250.594 284.011 249.432 284.254C248.26 284.497 247.041 284.501 245.875 284.73C244.698 284.959 243.619 285.664 242.448 285.878C241.272 286.093 239.898 285.202 238.721 285.402C237.54 285.602 236.644 287.475 235.468 287.661C234.287 287.847 233.005 287.442 231.829 287.613C230.643 287.785 229.375 287.332 228.194 287.489C227.009 287.646 225.987 289.095 224.806 289.233C223.62 289.377 222.242 287.885 221.056 288.014C219.866 288.142 218.853 289.977 217.667 290.087C216.477 290.196 215.18 289.153 213.994 289.248C212.804 289.343 211.58 288.981 210.394 289.062C209.198 289.143 207.989 288.752 206.803 288.814C205.607 288.876 204.499 290.635 203.308 290.682C202.113 290.73 200.893 290.177 199.708 290.206C198.512 290.234 197.322 290.439 196.131 290.454C194.936 290.468 193.741 289.248 192.55 289.243C191.354 289.238 190.178 289.081 188.988 289.062C187.792 289.043 186.583 290.044 185.397 290.01C184.201 289.972 183.035 289.443 181.844 289.386C180.649 289.329 179.502 288.743 178.316 288.671C177.125 288.599 175.815 290.253 174.629 290.163C173.438 290.072 172.257 289.791 171.071 289.682C169.881 289.572 168.695 289.391 167.514 289.262C166.328 289.133 165.287 287.785 164.111 287.637C162.925 287.489 161.571 288.628 160.395 288.461C159.214 288.295 158.163 287.265 156.992 287.08C155.811 286.894 154.76 286.055 153.589 285.85C152.413 285.645 150.909 287.199 149.742 286.975C148.571 286.746 147.718 284.983 146.561 284.735C145.395 284.487 144.3 283.996 143.149 283.729C141.987 283.462 140.415 284.863 139.269 284.577C138.112 284.287 136.969 283.896 135.827 283.586C134.675 283.272 133.576 282.762 132.438 282.428C131.291 282.095 130.385 280.979 129.248 280.622C128.105 280.264 126.905 280.108 125.777 279.731C124.644 279.35 123.54 278.897 122.427 278.496C121.304 278.092 120.513 276.848 119.41 276.423C118.296 275.995 117.183 275.623 116.088 275.17C114.985 274.717 113.119 276.023 112.035 275.546C110.941 275.07 110.7 272.754 109.629 272.254C108.55 271.748 106.897 272.44 105.836 271.915C104.766 271.386 104.289 269.756 103.243 269.204C102.187 268.651 100.63 269.037 99.5989 268.46C98.5578 267.879 98.0758 266.382 97.0635 265.777C96.0416 265.172 95.1309 264.433 94.133 263.804C93.1255 263.17 91.3179 263.766 90.3396 263.109C89.3512 262.446 88.1032 262.136 87.1388 261.45C86.1701 260.764 85.9871 259.029 85.0423 258.319C84.0976 257.604 83.6444 256.313 82.7236 255.574C81.7984 254.831 80.2366 254.878 79.3402 254.111C78.4386 253.339 78.0098 252.067 77.1374 251.271C76.2602 250.475 75.4889 249.607 74.6452 248.788C73.7968 247.963 72.944 247.182 72.1243 246.334C71.305 245.485 69.266 245.747 68.4756 244.871C67.6851 243.994 68.0176 242.154 67.2611 241.254C66.4993 240.353 64.6582 240.31 63.93 239.381C63.2023 238.451 62.4602 237.503 61.766 236.55C61.0718 235.597 60.8548 234.296 60.1946 233.319C59.5344 232.347 59.0764 231.236 58.4497 230.24C57.8279 229.244 57.6205 228.01 57.0326 226.99C56.4448 225.97 56.4975 224.641 55.948 223.597C55.3985 222.558 54.4829 221.738 53.9717 220.68C53.461 219.623 52.9115 218.607 52.4391 217.526C51.9668 216.453 51.1327 215.538 50.6991 214.442" stroke="#F5CC82" stroke-opacity="0.4" stroke-width="1.7008" stroke-miterlimit="10"/>
<path d="M497.704 138.965C497.791 140.142 498.04 141.301 498.096 142.473C498.153 143.655 497.373 144.841 497.408 146.018C497.434 147.2 499.561 148.349 499.561 149.521C499.561 150.703 499.225 151.894 499.195 153.072C499.164 154.253 499.373 155.454 499.317 156.627C499.264 157.804 499.426 159.019 499.343 160.191C499.264 161.368 498.066 162.465 497.957 163.637C497.844 164.809 496.719 165.867 496.576 167.035C496.436 168.207 497.639 169.542 497.473 170.704C497.303 171.872 495.56 172.787 495.369 173.945C495.177 175.108 496.733 176.571 496.51 177.724C496.288 178.882 495.016 179.83 494.767 180.979C494.514 182.132 495.835 183.638 495.56 184.782C495.286 185.925 495.064 187.112 494.758 188.251C494.458 189.39 492.44 190.071 492.113 191.201C491.786 192.331 491.137 193.355 490.784 194.475C490.431 195.6 491.93 197.315 491.556 198.431C491.181 199.546 490.906 200.723 490.505 201.833C490.104 202.939 488.749 203.715 488.326 204.816C487.899 205.917 486.989 206.823 486.544 207.914C486.095 209.005 485.773 210.139 485.298 211.221C484.832 212.303 483.459 212.975 482.966 214.047C482.474 215.119 482.91 216.601 482.396 217.664C481.886 218.727 481.345 219.771 480.809 220.824C480.282 221.873 479.703 222.902 479.149 223.946C478.596 224.984 478.766 226.414 478.195 227.448C477.62 228.478 477.397 229.722 476.809 230.741C476.221 231.761 474.512 232.147 473.902 233.157C473.297 234.168 473.397 235.611 472.769 236.608C472.146 237.604 470.556 238.004 469.906 238.995C469.261 239.982 468.394 240.811 467.728 241.793C467.069 242.77 466.242 243.618 465.562 244.585C464.886 245.553 465.875 247.683 465.178 248.636C464.485 249.589 463.858 250.618 463.152 251.562C462.442 252.506 460.424 252.482 459.701 253.416C458.977 254.35 458.777 255.689 458.04 256.609C457.304 257.528 456.432 258.353 455.678 259.263C454.929 260.173 453.591 260.602 452.824 261.508C452.057 262.409 451.656 263.605 450.876 264.496C450.101 265.387 448.471 265.525 447.682 266.407C446.893 267.284 447.054 269.004 446.257 269.876C445.451 270.744 443.943 270.953 443.124 271.811C442.309 272.669 441.485 273.503 440.662 274.346C439.834 275.19 439.607 276.615 438.77 277.449C437.929 278.283 437.908 279.937 437.058 280.761C436.212 281.585 433.979 280.999 433.116 281.81C432.258 282.624 432.142 284.206 431.275 285.012C430.407 285.812 429.255 286.318 428.378 287.109C427.5 287.9 427.496 289.663 426.609 290.445C425.722 291.226 424.83 292.027 423.929 292.799C423.033 293.571 421.639 293.785 420.733 294.548C419.827 295.31 418.227 295.253 417.311 296.001C416.395 296.749 415.797 297.884 414.872 298.622C413.947 299.361 413.676 300.924 412.741 301.653C411.806 302.382 410.674 302.873 409.729 303.593C408.784 304.313 408.133 305.423 407.179 306.128C406.23 306.838 404.914 307.081 403.954 307.777C402.995 308.473 401.993 309.121 401.024 309.807C400.055 310.493 398.093 309.788 397.119 310.465C396.146 311.142 396.469 313.667 395.486 314.33C394.502 314.997 393.186 315.188 392.198 315.845C391.21 316.503 389.586 316.207 388.588 316.851C387.59 317.494 387.667 319.791 386.665 320.425C385.662 321.059 384.125 320.882 383.117 321.502C382.105 322.126 381.083 322.736 380.066 323.351C379.049 323.966 378.297 325.028 377.275 325.629C376.248 326.234 375.482 327.288 374.455 327.879C373.424 328.469 371.79 328.036 370.753 328.617C369.712 329.198 368.503 329.475 367.462 330.042C366.416 330.614 365.394 331.219 364.347 331.782C363.297 332.344 362.53 333.425 361.475 333.974C360.419 334.522 358.583 333.578 357.522 334.116C356.462 334.655 355.561 335.484 354.496 336.008C353.425 336.537 353.059 338.463 351.989 338.977C350.914 339.492 349.931 340.202 348.851 340.707C347.771 341.212 346.778 341.918 345.699 342.409C344.614 342.904 343.009 342.266 341.924 342.747C340.835 343.228 339.799 343.824 338.71 344.291C337.615 344.763 336.893 346.097 335.798 346.555C334.694 347.017 333.316 346.821 332.212 347.27C331.103 347.717 329.585 347.126 328.476 347.56C327.368 347.994 326.515 349.061 325.406 349.481C324.293 349.905 323.015 349.872 321.902 350.277C320.784 350.687 320.258 352.707 319.145 353.103C318.022 353.498 316.147 351.754 315.029 352.135C313.9 352.517 313.336 354.551 312.209 354.918C311.076 355.285 310.131 356.243 309.003 356.596C307.866 356.953 306.593 356.901 305.46 357.239C304.328 357.577 303.026 357.358 301.898 357.678C300.761 358.002 299.542 358.069 298.385 358.383C297.242 358.697 296.23 359.531 295.073 359.832C293.926 360.132 292.456 359.217 291.294 359.503C290.142 359.789 289.439 361.914 288.277 362.19C287.12 362.467 285.799 362.091 284.628 362.353C283.466 362.615 282.15 362.19 280.979 362.443C279.818 362.691 278.945 364.364 277.774 364.602C276.607 364.84 275.07 363.287 273.899 363.511C272.727 363.735 271.913 365.846 270.732 366.06C269.56 366.27 268.148 365.217 266.967 365.417C265.791 365.617 264.533 365.312 263.347 365.503C262.171 365.689 260.913 365.36 259.732 365.536C258.551 365.712 257.64 367.757 256.455 367.919C255.274 368.081 253.992 367.581 252.801 367.728C251.615 367.876 250.449 368.219 249.258 368.357C248.073 368.495 246.733 367.266 245.542 367.39C244.351 367.514 243.156 367.466 241.96 367.581C240.77 367.69 239.685 368.939 238.49 369.039C237.299 369.134 236.065 368.686 234.87 368.772C233.675 368.858 232.451 368.348 231.255 368.419C230.059 368.491 228.97 370.492 227.775 370.549C226.579 370.607 225.365 370.454 224.165 370.497C222.969 370.54 221.759 370.506 220.559 370.535C219.359 370.564 218.139 369.23 216.939 369.244C215.739 369.258 214.553 370.726 213.353 370.726C212.153 370.726 210.957 369.759 209.762 369.744C208.562 369.73 207.386 368.981 206.186 368.953C204.986 368.925 203.727 370.897 202.527 370.85C201.327 370.807 200.204 369.02 199.008 368.958C197.808 368.901 196.642 368.562 195.446 368.486C194.251 368.41 192.916 370.254 191.721 370.163C190.525 370.073 189.325 369.873 188.134 369.768C186.939 369.658 185.758 369.325 184.567 369.201C183.372 369.077 182.283 368.052 181.092 367.914C179.902 367.771 178.682 367.871 177.497 367.714C176.306 367.557 175.13 367.318 173.949 367.142C172.763 366.966 171.741 365.808 170.56 365.612C169.375 365.417 168.199 365.288 167.022 365.074C165.841 364.86 164.256 366.747 163.084 366.518C161.908 366.284 161.19 363.859 160.023 363.606C158.852 363.353 157.358 364.549 156.192 364.278C155.025 364.006 154.191 362.396 153.03 362.105C151.868 361.814 150.402 362.682 149.251 362.372C148.089 362.062 147.265 360.609 146.113 360.275C144.961 359.941 143.876 359.441 142.734 359.088C141.587 358.736 139.938 359.941 138.801 359.565C137.663 359.188 136.347 359.274 135.219 358.874C134.087 358.478 133.455 356.72 132.332 356.3C131.209 355.881 130.409 354.685 129.3 354.246C128.187 353.803 126.649 354.413 125.546 353.946C124.442 353.479 123.661 352.321 122.567 351.83C121.472 351.339 120.455 350.744 119.375 350.229C118.296 349.714 117.216 349.247 116.146 348.709C115.076 348.17 113.148 349.257 112.092 348.694C111.037 348.132 110.782 346.14 109.74 345.549C108.699 344.963 106.867 345.697 105.841 345.087C104.814 344.472 103.768 343.853 102.761 343.214C101.753 342.575 101.088 341.389 100.1 340.722C99.1072 340.059 98.2588 339.182 97.2853 338.491C96.3113 337.8 95.6559 336.695 94.6968 335.98C93.7425 335.265 93.2845 333.954 92.3493 333.216C91.4141 332.477 90.19 332.124 89.274 331.362C88.3633 330.6 87.4185 329.894 86.5265 329.108C85.6349 328.322 84.4444 327.869 83.5768 327.054C82.7091 326.244 81.3931 325.877 80.5451 325.038C79.7014 324.204 79.7882 322.474 78.9641 321.611C78.1444 320.754 76.3033 320.82 75.508 319.934C74.7127 319.052 73.4206 318.557 72.6498 317.651C71.8784 316.746 73.011 314.301 72.2641 313.372C71.5216 312.447 69.3863 312.59 68.6681 311.637C67.9548 310.694 67.4052 309.612 66.7159 308.64C66.0269 307.677 65.6992 306.462 65.0338 305.47C64.3736 304.489 63.6986 303.507 63.0623 302.502C62.4309 301.501 61.5201 300.657 60.9079 299.628C60.3052 298.613 59.0136 297.955 58.4305 296.911C57.8518 295.877 57.7699 294.552 57.2156 293.49C56.6661 292.442 55.8032 291.517 55.2781 290.44" stroke="#F5CC82" stroke-opacity="0.4" stroke-width="1.7008" stroke-miterlimit="10"/>
<path d="M521.145 226.628C520.84 227.772 519.855 228.734 519.528 229.869C519.197 231.007 520.182 232.537 519.833 233.667C519.489 234.801 517.58 235.454 517.214 236.579C516.848 237.703 516.469 238.819 516.085 239.938C515.697 241.058 515.684 242.302 515.279 243.417C514.874 244.532 515.227 245.924 514.804 247.034C514.377 248.14 514.303 249.393 513.858 250.494C513.418 251.595 512.961 252.705 512.503 253.801C512.046 254.893 510.839 255.689 510.368 256.775C509.893 257.862 509.666 259.063 509.174 260.14C508.681 261.217 507.984 262.213 507.47 263.28C506.96 264.353 506.568 265.487 506.045 266.549C505.518 267.612 504.267 268.317 503.722 269.371C503.182 270.424 503.448 271.897 502.886 272.945C502.328 273.988 500.289 274.246 499.718 275.285C499.142 276.324 498.415 277.258 497.822 278.287C497.234 279.316 498.454 281.37 497.848 282.395C497.247 283.415 496.698 284.487 496.083 285.497C495.464 286.508 493.159 286.498 492.523 287.504C491.891 288.505 493.098 290.663 492.449 291.659C491.8 292.655 489.307 292.46 488.645 293.441C487.982 294.428 487.777 295.701 487.102 296.677C486.427 297.655 486.836 299.375 486.148 300.347C485.459 301.315 484.989 302.453 484.287 303.411C483.59 304.369 482.518 305.074 481.803 306.023C481.093 306.971 479.415 307.2 478.687 308.143C477.96 309.082 476.905 309.759 476.164 310.693C475.428 311.622 476.016 313.6 475.262 314.52C474.513 315.44 473.724 316.345 472.961 317.256C472.199 318.166 471.575 319.209 470.8 320.11C470.024 321.011 468.638 321.402 467.854 322.293C467.07 323.184 466.22 324.022 465.422 324.904C464.625 325.786 464.211 327.02 463.4 327.892C462.59 328.764 460.468 328.421 459.648 329.284C458.825 330.146 459.352 332.272 458.524 333.12C457.696 333.973 457.138 335.103 456.297 335.946C455.456 336.785 454.628 337.662 453.774 338.491C452.929 339.32 451.456 339.544 450.593 340.364C449.73 341.184 448.863 341.999 447.991 342.813C447.12 343.623 446.266 344.457 445.386 345.258C444.501 346.058 443.878 347.145 442.989 347.936C442.1 348.727 440.1 348.279 439.206 349.061C438.309 349.842 437.746 350.996 436.844 351.768C435.938 352.535 435.986 354.427 435.064 355.185C434.148 355.943 432.996 356.438 432.07 357.186C431.145 357.934 429.53 357.849 428.595 358.587C427.66 359.326 427.072 360.494 426.132 361.223C425.192 361.952 423.944 362.29 422.994 363.01C422.045 363.729 420.767 364.011 419.808 364.716C418.849 365.426 418.179 366.503 417.21 367.199C416.246 367.895 415.528 368.934 414.554 369.624C413.581 370.311 412.12 370.311 411.137 370.987C410.158 371.664 410.028 373.566 409.04 374.228C408.052 374.895 406.264 374.39 405.271 375.048C404.273 375.705 404.249 377.821 403.246 378.465C402.244 379.108 400.229 378.203 399.217 378.836C398.204 379.47 397.713 380.914 396.696 381.538C395.679 382.163 394.295 382.196 393.273 382.806C392.251 383.421 391.919 385.184 390.887 385.785C389.856 386.385 387.865 385.356 386.829 385.947C385.793 386.538 385.744 388.84 384.699 389.421C383.658 390.002 381.739 389.035 380.693 389.602C379.642 390.169 378.977 391.427 377.921 391.985C376.866 392.542 376.297 394.024 375.237 394.573C374.176 395.12 372.34 394.182 371.27 394.72C370.204 395.259 369.274 396.055 368.199 396.579C367.124 397.103 365.732 396.955 364.652 397.47C363.572 397.984 362.719 398.943 361.634 399.447C360.55 399.948 359.219 399.9 358.13 400.391C357.041 400.882 356.491 402.55 355.397 403.031C354.303 403.513 352.818 403.098 351.719 403.565C350.62 404.032 349.676 404.842 348.567 405.3C347.463 405.757 346.147 405.695 345.038 406.138C343.93 406.582 342.773 406.882 341.66 407.315C340.546 407.749 339.727 408.922 338.609 409.341C337.49 409.76 336.083 409.398 334.96 409.808C333.837 410.218 333.032 411.476 331.904 411.872C330.776 412.267 329.354 411.819 328.226 412.205C327.093 412.591 326.467 414.44 325.329 414.812C324.192 415.184 322.722 414.536 321.579 414.898C320.437 415.26 319.198 415.269 318.051 415.617C316.904 415.965 315.843 416.547 314.696 416.885C313.549 417.223 312.604 418.243 311.452 418.567C310.3 418.891 309.278 419.687 308.122 419.997C306.965 420.306 305.721 420.292 304.56 420.588C303.398 420.888 302.087 420.578 300.925 420.864C299.763 421.15 298.872 422.546 297.705 422.818C296.539 423.09 295.146 422.394 293.979 422.651C292.808 422.908 291.892 424.324 290.721 424.567C289.55 424.815 288.258 424.524 287.086 424.758C285.91 424.991 284.488 423.924 283.313 424.143C282.136 424.362 281.119 425.411 279.938 425.615C278.758 425.821 277.726 426.893 276.545 427.083C275.364 427.274 273.99 426.283 272.81 426.459C271.624 426.636 270.351 426.125 269.165 426.292C267.98 426.454 267.078 428.727 265.893 428.88C264.702 429.028 263.295 427.383 262.109 427.522C260.918 427.655 259.863 428.995 258.672 429.118C257.481 429.238 256.334 429.905 255.144 430.009C253.949 430.116 252.738 430.176 251.548 430.266C250.353 430.357 249.08 429.452 247.885 429.528C246.689 429.604 245.475 429.357 244.279 429.419C243.084 429.481 241.884 429.304 240.684 429.347C239.488 429.394 238.307 429.776 237.107 429.804C235.907 429.833 234.726 430.735 233.53 430.748C232.33 430.761 231.125 430.894 229.93 430.894C228.73 430.894 227.529 430.357 226.334 430.339C225.134 430.318 223.972 429.061 222.772 429.032C221.577 428.999 220.338 430.292 219.138 430.245C217.942 430.193 216.785 429.299 215.59 429.233C214.395 429.166 213.146 429.962 211.951 429.881C210.756 429.8 209.584 429.39 208.394 429.295C207.198 429.194 206.104 428.089 204.914 427.974C203.723 427.86 202.407 428.97 201.217 428.837C200.026 428.704 199.014 427.145 197.828 426.998C196.642 426.85 195.345 427.574 194.16 427.408C192.974 427.241 191.721 427.517 190.54 427.331C189.359 427.145 188.39 425.716 187.209 425.516C186.028 425.315 184.674 426.135 183.498 425.916C182.322 425.697 181.222 425.106 180.052 424.867C178.88 424.629 177.622 424.791 176.456 424.534C175.284 424.281 174.026 424.415 172.86 424.143C171.693 423.871 170.724 422.818 169.563 422.527C168.401 422.237 166.989 422.899 165.832 422.594C164.675 422.284 163.441 422.213 162.294 421.889C161.142 421.565 160.487 419.577 159.344 419.234C158.202 418.891 156.848 419.22 155.71 418.858C154.572 418.496 153.469 418.033 152.336 417.652C151.203 417.271 150.302 416.256 149.179 415.856C148.051 415.455 146.422 416.428 145.298 416.013C144.18 415.598 143.11 415.031 141.997 414.593C140.883 414.159 139.577 414.169 138.468 413.716C137.365 413.263 137.109 410.842 136.01 410.37C134.911 409.898 133.552 410.051 132.463 409.56C131.373 409.069 130.033 409.126 128.953 408.622C127.874 408.111 127.271 406.648 126.201 406.119C125.131 405.595 123.825 405.548 122.765 404.999C121.699 404.456 119.993 405.104 118.938 404.542" stroke="#F5CC82" stroke-opacity="0.4" stroke-width="1.7008" stroke-miterlimit="10"/>
<path d="M512.046 304.827C511.488 305.871 510.899 306.909 510.324 307.948C509.749 308.987 507.888 309.316 507.3 310.345C506.716 311.375 506.516 312.614 505.919 313.638C505.317 314.658 505.901 316.378 505.287 317.394C504.672 318.409 502.868 318.709 502.236 319.715C501.604 320.72 501.692 322.169 501.051 323.165C500.41 324.161 499.352 324.9 498.698 325.886C498.044 326.872 498.136 328.359 497.46 329.341C496.789 330.318 494.65 330.304 493.97 331.271C493.286 332.239 494 334.183 493.303 335.145C492.61 336.108 492.026 337.161 491.32 338.114C490.61 339.068 488.701 339.139 487.982 340.083C487.263 341.026 486.775 342.137 486.039 343.071C485.307 344.005 484.056 344.524 483.311 345.449C482.566 346.373 483.084 348.303 482.33 349.218C481.572 350.133 480.648 350.924 479.881 351.83C479.114 352.735 477.319 352.783 476.543 353.679C475.763 354.575 475.354 355.781 474.565 356.667C473.772 357.554 473.907 359.264 473.109 360.141C472.308 361.018 470.704 361.175 469.889 362.038C469.074 362.905 468.198 363.706 467.37 364.563C466.547 365.421 465.78 366.327 464.947 367.17C464.115 368.019 462.703 368.29 461.858 369.124C461.017 369.958 460.869 371.488 460.019 372.312C459.165 373.137 457.644 373.28 456.781 374.1C455.918 374.914 455.404 376.087 454.532 376.892C453.661 377.698 452.859 378.579 451.97 379.375C451.09 380.171 450.336 381.11 449.443 381.896C448.549 382.682 448.14 384.022 447.237 384.794C446.335 385.57 445.019 385.875 444.109 386.638C443.198 387.4 442.509 388.43 441.59 389.187C440.67 389.94 439.023 389.821 438.099 390.564C437.171 391.308 437.184 393.219 436.243 393.948C435.304 394.682 434.456 395.545 433.511 396.264C432.566 396.984 431.496 397.565 430.542 398.275C429.587 398.985 428.638 399.724 427.674 400.425C426.71 401.125 424.893 400.663 423.924 401.354C422.95 402.045 422.502 403.456 421.523 404.132C420.545 404.809 418.911 404.552 417.923 405.219C416.935 405.886 416.968 408.049 415.976 408.707C414.983 409.365 413.821 409.789 412.818 410.437C411.816 411.081 410.399 411.095 409.391 411.729C408.379 412.363 406.904 412.244 405.887 412.863C404.87 413.482 404.629 415.36 403.602 415.97C402.576 416.58 400.889 416.085 399.857 416.685C398.826 417.285 398.508 419.101 397.471 419.687C396.435 420.273 394.888 419.973 393.841 420.55C392.796 421.126 392.024 422.194 390.974 422.756C389.923 423.319 388.651 423.476 387.595 424.029C386.534 424.581 385.657 425.473 384.592 426.011C383.527 426.55 382.727 427.617 381.656 428.146C380.587 428.675 379.092 428.356 378.012 428.87C376.937 429.385 375.761 429.686 374.677 430.189C373.592 430.692 372.489 431.139 371.399 431.629C370.31 432.12 369.587 433.419 368.493 433.892C367.398 434.369 366.401 435.092 365.302 435.552C364.203 436.021 363.118 436.537 362.01 436.993C360.906 437.444 359.58 437.371 358.467 437.814C357.358 438.253 356.124 438.386 355.006 438.816C353.892 439.242 352.823 439.792 351.704 440.21C350.581 440.622 349.612 441.444 348.485 441.844C347.357 442.244 346.108 442.3 344.975 442.687C343.843 443.074 342.493 442.812 341.361 443.181C340.228 443.551 339.399 444.859 338.256 445.216C337.119 445.577 335.996 446.007 334.848 446.351C333.706 446.7 332.289 446.145 331.142 446.48C329.995 446.811 329.083 447.955 327.932 448.278C326.78 448.596 325.348 447.899 324.191 448.205C323.035 448.51 322.244 450.209 321.087 450.501C319.925 450.794 318.465 449.878 317.303 450.153C316.142 450.428 315.259 451.912 314.093 452.174C312.927 452.437 311.64 452.192 310.468 452.441C309.297 452.691 308.01 452.368 306.834 452.605C305.663 452.837 304.703 454.196 303.528 454.415C302.351 454.635 300.93 453.512 299.749 453.714C298.568 453.921 297.396 454.11 296.215 454.299C295.034 454.484 293.907 455 292.726 455.172C291.54 455.344 290.451 456.187 289.265 456.346C288.079 456.501 286.922 456.97 285.736 457.112C284.551 457.254 283.346 457.387 282.16 457.516C280.969 457.641 279.707 457.103 278.516 457.211C277.326 457.323 276.149 457.658 274.959 457.757C273.768 457.852 272.553 457.761 271.363 457.834C270.168 457.912 268.977 458.101 267.782 458.165C266.586 458.226 265.362 457.611 264.166 457.654C262.971 457.701 261.8 458.51 260.604 458.535C259.409 458.565 258.189 457.189 256.994 457.202C255.799 457.215 254.613 457.069 253.418 457.064C252.222 457.06 251.012 458.798 249.817 458.776C248.622 458.755 247.412 458.793 246.217 458.755C245.021 458.716 243.893 457.03 242.698 456.978C241.502 456.927 240.211 458.686 239.015 458.613C237.82 458.54 236.755 456.634 235.559 456.544C234.369 456.454 233.144 456.815 231.954 456.712C230.763 456.604 229.462 457.598 228.271 457.473C227.081 457.348 225.856 457.456 224.666 457.31C223.48 457.168 222.328 456.66 221.142 456.501C219.957 456.346 218.915 455.185 217.734 455.009C216.554 454.832 215.435 454.312 214.254 454.118C213.073 453.925 211.652 455.129 210.475 454.918C209.299 454.708 208.118 454.462 206.947 454.235C205.776 454.002 204.556 453.933 203.39 453.684C202.223 453.439 201.192 452.536 200.026 452.273C198.859 452.011 197.712 451.68 196.55 451.392C195.389 451.112 194.116 451.25 192.959 450.949C191.802 450.648 191.05 448.897 189.898 448.575C188.746 448.256 187.166 449.426 186.018 449.091C184.871 448.755 183.618 448.729 182.475 448.377C181.333 448.024 180.171 447.684 179.034 447.315C177.901 446.94 176.995 445.874 175.862 445.482C174.734 445.091 173.602 444.687 172.474 444.282" stroke="#F5CC82" stroke-opacity="0.4" stroke-width="1.7008" stroke-miterlimit="10"/>
<path d="M371.466 53.2272C371.915 54.3136 372.035 55.5195 372.406 56.6201C372.782 57.7306 373.462 58.755 373.761 59.8797C374.064 61.0095 374.946 62.0435 375.178 63.187C375.409 64.3311 374.195 65.7224 374.354 66.8806C374.508 68.0341 376.05 69.0632 376.137 70.2309C376.224 71.3934 376.267 72.6088 376.282 73.7812C376.296 74.9442 375.809 76.1402 375.756 77.3126C375.708 78.4704 375.231 79.6192 375.115 80.7864C375.004 81.9399 375.684 83.2219 375.51 84.3845C375.337 85.5332 373.52 86.4054 373.288 87.5585C373.062 88.6973 373.707 90.0177 373.423 91.1612C373.144 92.2859 372.247 93.2484 371.915 94.3783C371.582 95.4883 372.522 97.0181 372.141 98.1333C371.765 99.2296 370.117 99.8919 369.693 100.993C369.273 102.075 368.883 103.161 368.415 104.243C367.953 105.31 367.967 106.592 367.461 107.655C366.96 108.703 365.832 109.447 365.287 110.495C364.752 111.529 364.776 112.854 364.202 113.884C363.634 114.899 362.78 115.761 362.173 116.772C361.576 117.768 361.007 118.788 360.366 119.779C359.739 120.76 359.011 121.68 358.351 122.652C357.695 123.615 357.044 124.582 356.355 125.54C355.676 126.484 354.611 127.151 353.897 128.09C353.193 129.014 352.697 130.087 351.964 131.007C351.236 131.912 351.391 133.537 350.634 134.438C349.887 135.329 348.932 136.077 348.156 136.958C347.385 137.831 345.746 137.945 344.946 138.813C344.156 139.67 343.471 140.614 342.652 141.462C341.842 142.306 341.919 144.002 341.085 144.836C340.261 145.661 338.328 145.389 337.475 146.209C336.632 147.019 336.41 148.467 335.542 149.273C334.684 150.064 333.204 150.188 332.322 150.974C331.45 151.751 331.074 153.086 330.177 153.858C329.286 154.62 328.476 155.478 327.565 156.231C326.659 156.974 325.41 157.303 324.485 158.041C323.569 158.771 323.434 160.496 322.494 161.215C321.569 161.926 319.838 161.611 318.893 162.312C317.953 163.008 317.611 164.513 316.652 165.2C315.703 165.881 314.228 165.848 313.254 166.52C312.29 167.187 311.075 167.487 310.092 168.14C309.118 168.793 308.217 169.546 307.224 170.184C306.236 170.823 305.547 171.909 304.539 172.534C303.542 173.153 302.606 173.887 301.594 174.497C300.587 175.102 299.806 176.103 298.784 176.699C297.772 177.29 296.837 178.043 295.81 178.62C294.788 179.196 293.352 179.063 292.316 179.625C291.279 180.187 290.079 180.435 289.028 180.983C287.982 181.531 287.428 183.013 286.372 183.552C285.322 184.081 284.102 184.314 283.037 184.834C281.981 185.349 280.762 185.553 279.692 186.059C278.621 186.559 277.407 186.745 276.322 187.236C275.243 187.722 274.023 187.889 272.934 188.365C271.849 188.837 270.75 189.252 269.652 189.709C268.553 190.166 267.935 191.773 266.827 192.216C265.723 192.659 264.682 193.264 263.583 193.688C262.474 194.117 260.937 193.421 259.828 193.826C258.715 194.236 257.669 194.804 256.555 195.199C255.437 195.594 254.535 196.6 253.417 196.977C252.294 197.358 251.32 198.201 250.197 198.564C249.07 198.926 247.667 198.459 246.539 198.807C245.401 199.155 244.428 200.031 243.295 200.36C242.153 200.689 240.745 200.074 239.608 200.384C238.46 200.699 237.458 201.499 236.315 201.79C235.164 202.085 234.142 202.871 232.994 203.148C231.843 203.429 230.445 202.695 229.297 202.953C228.141 203.215 226.935 203.21 225.779 203.453C224.617 203.696 223.702 205.107 222.545 205.331C221.378 205.559 220.25 205.998 219.088 206.208C217.917 206.417 216.751 206.67 215.589 206.86C214.418 207.051 213.015 205.731 211.849 205.903C210.673 206.074 209.689 207.585 208.523 207.733C207.347 207.885 206.151 207.923 204.98 208.056C203.799 208.185 202.642 208.59 201.471 208.7C200.29 208.81 199.042 208.185 197.865 208.276C196.68 208.366 195.494 208.333 194.318 208.4C193.132 208.466 191.971 208.957 190.795 209.005C189.609 209.053 188.428 209.367 187.252 209.391C186.066 209.415 184.871 209.625 183.695 209.625C182.509 209.625 181.328 208.542 180.157 208.524C178.971 208.5 177.785 208.662 176.614 208.614C175.428 208.567 174.281 208.004 173.11 207.933C171.924 207.861 170.641 209.162 169.475 209.067C168.285 208.967 167.234 207.451 166.062 207.328C164.877 207.204 163.551 208.266 162.385 208.114C161.204 207.961 160.153 206.913 158.987 206.732C157.811 206.551 156.471 207.299 155.314 207.089C154.143 206.879 153.178 205.617 152.031 205.374C150.865 205.131 149.448 205.998 148.306 205.726C147.149 205.45 146.334 203.863 145.201 203.558C144.054 203.253 142.709 203.658 141.586 203.32C140.449 202.976 139.354 202.509 138.246 202.138C137.118 201.761 136.11 201.099 135.011 200.689C133.898 200.274 132.611 200.317 131.531 199.869C130.437 199.417 129.449 198.725 128.389 198.239C127.309 197.749 126.528 196.695 125.487 196.166C124.431 195.633 123.144 195.557 122.127 194.985C121.091 194.408 120.532 193.097 119.539 192.488C118.531 191.863 117.442 191.439 116.473 190.777C115.495 190.109 113.89 190.31 112.96 189.609C112.02 188.894 111.099 188.127 110.207 187.379C109.306 186.621 108.424 185.816 107.571 185.015C106.713 184.209 106.303 182.961 105.498 182.117C104.688 181.269 104.303 180.078 103.546 179.192C102.789 178.295 100.871 178.3 100.172 177.366C99.4681 176.432 99.9261 174.688 99.2851 173.716C98.644 172.739 97.8387 171.895 97.2604 170.88C96.6822 169.87 96.6578 168.612 96.1471 167.559C95.6359 166.515 94.0357 165.962 93.5926 164.88C93.1441 163.794 93.0234 162.578 92.6478 161.473C92.2717 160.363 91.3701 159.385 91.0668 158.256C90.7631 157.127 91.144 155.821 90.9126 154.672C90.6812 153.529 90.0401 152.438 89.8859 151.275C89.7316 150.121 90.7387 148.849 90.652 147.681C90.5652 146.518 89.6301 145.408 89.6157 144.236C89.6013 143.073 89.9051 141.905 89.9582 140.733C90.0061 139.575 89.4423 138.35 89.5529 137.183C89.6641 136.029 90.7966 134.986 90.9701 133.823C91.144 132.674 91.2259 131.521 91.4573 130.368C91.6834 129.229 91.5244 128.004 91.8137 126.861C92.0935 125.735 92.7825 124.711 93.1202 123.586C93.4527 122.476 92.8021 121.037 93.1873 119.922C93.5634 118.825 94.2288 117.791 94.6576 116.695C95.0768 115.614 96.3253 114.851 96.7929 113.765C97.2557 112.697 97.4583 111.515 97.969 110.453C98.4702 109.404 99.4489 108.589 99.9888 107.54C100.524 106.507 100.803 105.348 101.382 104.319C101.95 103.304 102.384 102.213 102.997 101.202C103.594 100.206 104.293 99.2627 104.929 98.2714C105.556 97.2899 106.178 96.3033 106.843 95.3266C107.498 94.3636 107.503 92.9388 108.192 91.981C108.872 91.0374 109.436 89.9747 110.149 89.0358C110.853 88.1111 111.807 87.349 112.545 86.4338C113.273 85.5285 114.999 85.4141 115.755 84.5135C116.502 83.6219 116.975 82.502 117.751 81.6208C118.522 80.7486 118.58 79.2329 119.375 78.3655C120.166 77.5079 121.033 76.6976 121.848 75.8495C122.658 75.0061 123.501 74.1769 124.335 73.3425C125.159 72.5181 126.866 72.5658 127.719 71.7508C128.562 70.941 129.145 69.8688 130.013 69.068C130.871 68.277 130.958 66.6328 131.84 65.8462C132.712 65.0695 134.375 65.1555 135.272 64.3883C136.164 63.6257 136.597 62.3295 137.508 61.5764C138.414 60.8332 139.586 60.3992 140.511 59.6608C141.427 58.9314 141.885 57.6067 142.825 56.8872C143.75 56.1771 145.596 56.6442 146.541 55.9436C147.481 55.2477 147.573 53.4035 148.532 52.7171C149.481 52.0359 150.378 51.2445 151.352 50.5775C152.315 49.9104 154.003 50.2678 154.981 49.615C155.955 48.9621 156.798 48.1135 157.791 47.4749C158.779 46.8366 160.067 46.6745 161.069 46.0453C162.067 45.426 162.346 43.6532 163.363 43.0429C164.371 42.4378 165.479 41.9756 166.506 41.3798C167.518 40.7889 169.104 41.1702 170.131 40.5935C171.153 40.0169 171.977 39.0924 173.018 38.53C174.054 37.9677 174.594 36.4903 175.645 35.9423C176.691 35.3943 178.161 35.6516 179.221 35.1179C180.272 34.5889 181.366 34.1266 182.432 33.6072C183.487 33.0925 184.523 32.5254 185.594 32.0202C186.664 31.5198 188.023 31.639 189.103 31.1529C190.182 30.6668 190.92 29.4278 192.009 28.956C193.094 28.4842 194.497 28.7463 195.596 28.2888C196.694 27.8313 197.624 26.9877 198.733 26.5445C199.837 26.1013 200.898 25.5819 202.001 25.1578C203.11 24.7289 204.156 24.1522 205.26 23.7472C206.373 23.3373 207.274 22.3461 208.388 21.9505C209.506 21.555 210.803 21.6551 211.921 21.2786C213.044 20.8973 214.081 20.2445 215.204 19.887C216.331 19.5248 217.748 20.0681 218.881 19.725C220.019 19.3771 220.785 17.8283 221.918 17.4995C223.06 17.1706 224.169 16.7084 225.306 16.3986C226.453 16.0841 227.644 15.922 228.787 15.6266C229.939 15.3311 231.086 15.0118 232.233 14.7354C233.385 14.4542 234.821 15.3549 235.973 15.0976C237.13 14.8355 238.123 13.8442 239.275 13.6012C240.437 13.3582 241.787 14.0539 242.943 13.83C244.11 13.6012 244.987 11.8856 246.149 11.6759C247.32 11.4662 248.534 11.4948 249.696 11.3042C250.868 11.1136 252.14 11.5568 253.306 11.3852C254.482 11.2136 255.75 11.7855 256.917 11.6378C258.093 11.4853 259.115 10.1128 260.286 9.98413C261.467 9.85545 262.754 10.8038 263.925 10.6942C265.106 10.5846 266.181 9.29312 267.357 9.20254C268.543 9.11201 269.781 9.88878 270.958 9.8173C272.143 9.7506 273.3 9.21209 274.476 9.16444C275.662 9.11678 276.858 9.46468 278.034 9.44085C279.219 9.41702 280.4 9.07386 281.576 9.07386C282.762 9.07386 283.958 8.58301 285.134 8.60211C286.319 8.62593 287.486 9.45036 288.657 9.49323C289.843 9.54093 291.009 9.7887 292.181 9.86022C293.366 9.9317 294.533 10.0603 295.699 10.1557C296.89 10.2558 298.143 9.61714 299.314 9.74105C300.5 9.86495 301.72 9.78397 302.886 9.9317C304.067 10.0842 305.267 10.1986 306.429 10.3797C307.605 10.5607 308.709 11.2232 309.866 11.4281C311.037 11.6378 312.15 12.1334 313.297 12.3717C314.464 12.6147 315.645 12.7529 316.787 13.0245C317.944 13.301 319.192 13.2295 320.325 13.5297C321.472 13.8347 322.533 14.4495 323.656 14.7878C324.793 15.131 325.738 16.0269 326.847 16.3986C327.974 16.7751 329.368 16.3891 330.462 16.7942C331.575 17.2088 332.708 17.5805 333.788 18.0285C334.882 18.4812 335.643 19.6678 336.704 20.1539C337.783 20.6448 339.162 20.5113 340.203 21.0355C341.259 21.5693 341.876 22.8941 342.893 23.466C343.929 24.0426 345.577 23.5899 346.571 24.2046C347.578 24.8289 347.997 26.3444 348.966 27.0021C349.945 27.6692 351.531 27.512 352.461 28.2173C353.4 28.9321 354.066 30.0139 354.958 30.7621C355.859 31.5198 356.413 32.6588 357.261 33.4547C358.119 34.2601 359.662 34.4078 360.467 35.2513C361.277 36.0996 361.209 37.739 361.961 38.6254C362.718 39.5213 363.436 40.4172 364.135 41.3512C364.839 42.2853 365.735 43.0717 366.376 44.0484C367.018 45.0256 368.131 45.7356 368.709 46.7459C369.287 47.7561 370.093 48.6997 370.603 49.753C371.11 50.8016 371.023 52.1451 371.466 53.2272Z" stroke="#F5CC82" stroke-opacity="0.4" stroke-width="1.7008" stroke-miterlimit="10"/>
<path d="M512.281 408.169L509.941 410.89L507.317 413.383L505.696 416.661L501.343 417.734L499.216 420.584L498.855 424.959L494.366 425.773L493.512 429.795L489.991 431.41L488.34 434.748L485.211 436.692L482.226 438.739L480.378 441.939L478.609 445.259L476.334 448.084L472.207 448.863L470.159 451.938L466.738 453.443L463.814 455.499L462.707 459.791L459.648 461.727L456.541 463.576L452.981 464.797L451.081 468.264L447.961 470.074L444.305 471.098L440.84 472.358L437.751 474.143L435.742 477.631L432.358 478.977L430.04 482.074L426.295 482.792L423.735 485.557L420.419 486.998L416.626 487.523L413.435 489.144L409.675 489.622L407.612 493.561L404.229 494.813L399.924 494.004L397.634 497.69L394.019 498.374L390.607 499.496L386.958 500.012L383.936 502.133L380.268 502.533L377.694 506.042L374.088 506.636L369.842 505.148L366.603 506.765L363.349 508.382L360.052 509.904L356.331 509.861L352.832 510.618L349.665 512.79L345.717 511.573L342.367 513.014L338.983 514.36L335.214 513.68L332.12 516.807L328.254 515.379L324.784 516.411L321.173 516.433H317.573L314.045 517.074L310.526 517.891L307.012 518.979L303.31 517.306L299.825 519.108L296.277 520.398L292.614 517.822L289.067 520.028L285.471 517.934L281.899 518.213L278.269 520.046L274.659 520.243L271.131 518.734L267.525 518.975L263.915 519.031L260.43 517.684L256.632 519.555L253.08 518.859L249.677 517.078L245.951 517.792L242.553 516.205L239.26 514.179L235.395 515.461L232.233 512.928L228.333 514.093L224.93 512.85L221.778 510.605L218.23 510.089L214.182 511.41L211.289 508.39L207.405 508.937L204.213 507.083L201.105 505.062L197.104 505.763L193.822 504.262L190.019 504.214L186.538 503.234L183.511 501.075L179.829 500.58L176.98 498.077L173.905 496.163L171.201 493.475L166.626 494.817L163.787 492.43L160.461 491.05L157.83 488.327L153.969 487.953L151.607 484.8L147.5 484.792L145.09 481.798L142.135 479.773L138.53 478.797L135.874 476.289L133.474 473.425L130.003 472.199L127.477 469.567L123.246 469.352L121.019 466.303L118.43 463.769L115.398 461.856L111.542 460.957L110.255 456.845L106.857 455.353L104.081 453.095L102.182 449.843L98.3111 448.82L94.9757 447.143L92.5175 444.515L90.194 441.758L88.5311 438.36L85.75 436.089L84.0631 432.769L81.0698 430.696L78.5393 428.18L75.7577 425.878L73.5793 423.043L70.5812 420.903L68.8555 417.696L67.3325 414.355L64.4211 412.115L62.6667 408.975L59.7553 406.696L58.2562 403.384L55.1038 401.24L53.4793 398.028L52.5249 394.387L49.18 392.309L47.4251 389.197L45.3622 386.276L43.5018 383.226L43.0342 379.39L40.7688 376.588L39.2938 373.342L37.1923 370.43L34.6231 367.743L33.6302 364.254L31.5142 361.314L30.6755 357.778L29.2632 354.513L28.7667 350.858L26.911 347.784L25.277 344.615L25.0408 340.903L22.303 338.134L22.6307 334.25L19.8206 331.462L17.6419 328.426L18.683 324.366L15.3717 321.65L16.138 317.723L15.468 314.23L13.781 311.003L12.2627 307.71L13.4292 303.793L10.3443 300.838L11.8337 296.897L9.06694 293.823L7.72215 290.44L10.2238 286.413L6.71478 283.368L8.78256 279.484L5.93871 276.272L6.67621 272.602L5.63023 269.137L5.55309 265.573L7.06662 261.894L5.6206 258.444L6.68584 254.841L4.8349 251.371L6.51715 247.778L4.97469 244.261L6.22793 240.716L6.14117 237.179L4.35773 233.596L5.28318 230.069L5.15785 226.509L6.51715 223.04L5.21088 219.39L7.85232 216.053L8.0885 212.532L5.99658 208.734L6.58461 205.221L7.93424 201.819L7.98244 198.235L7.77518 194.599L9.06215 191.211L9.71768 187.713L9.37063 184.01L11.3469 180.793L13.9063 177.738L11.9108 173.607L13.4002 170.304L15.8874 167.292L17.2949 164.013L18.2493 160.606L18.0805 156.841L18.1769 153.129L21.7101 150.57L22.4717 147.086L22.4331 143.288L24.9396 140.438L25.8698 136.992L27.4219 133.795L28.786 130.521L28.4197 126.465L30.661 123.568L31.9673 120.236L33.4133 116.972L36.8741 114.728L36.2571 110.391L38.084 107.307L41.7665 105.268L41.6894 101.127L43.8343 98.2387L46.0563 95.4079L47.782 92.2721L51.368 90.3277L51.4451 86.1246L53.4409 83.1506L56.1401 80.6582L59.866 78.9332L62.1172 76.1643" stroke="#F5CC82" stroke-opacity="0.4" stroke-width="1.7008" stroke-miterlimit="10"/>
</g>
</g>
<defs>
<clipPath id="clip0_1_491">
<rect width="536" height="529" fill="white"/>
</clipPath>
</defs>
</svg>
