<svg width="60" height="19" viewBox="0 0 60 19" fill="none" xmlns="http://www.w3.org/2000/svg">
<g id="visa-svgrepo-com 1" clip-path="url(#clip0_1_530)">
<path id="Vector" d="M43.6165 0.753178C42.2221 0.245085 40.7481 -0.00987869 39.2641 0.000292741C34.4648 0.000292741 31.0753 2.41793 31.0513 5.88841C31.0213 8.43803 33.46 9.87481 35.3047 10.7267C37.1974 11.6026 37.8303 12.1545 37.8243 12.9374C37.8123 14.1282 36.3126 14.6681 34.9178 14.6681C33.001 14.6681 31.9542 14.4011 30.3434 13.7322L29.7465 13.4533L29.0656 17.4487C30.2325 17.9346 32.3351 18.3515 34.5068 18.3875C39.6091 18.3875 42.9446 15.9849 42.9835 12.2924C43.0255 10.2558 41.7057 8.71698 38.9282 7.44517C37.2394 6.6203 36.1926 6.06838 36.1926 5.23151C36.1926 4.49062 37.0894 3.69874 38.9642 3.69874C40.2118 3.66855 41.4518 3.90264 42.6026 4.38564L43.0525 4.5866L43.7334 0.726183L43.6165 0.753178ZM56.0706 0.324244H52.3212C51.1543 0.324244 50.2755 0.645195 49.7655 1.80302L42.5546 18.1386H47.6568L48.6767 15.46L54.9038 15.466C55.0507 16.0929 55.5007 18.1386 55.5007 18.1386H60L56.0706 0.324244ZM24.1494 0.174266H29.0116L25.9701 17.9976H21.1138L22.6316 9.08293L24.1494 0.168267V0.174266ZM11.8062 9.99779L12.3102 12.4724L17.0614 0.324244H22.2117L14.5598 18.1146H9.42159L5.22222 3.05083C5.1542 2.80245 4.99447 2.58912 4.77528 2.45392C3.26171 1.67205 1.65799 1.07871 0 0.687187L0.06599 0.312243H7.89182C8.95366 0.354237 9.80853 0.687188 10.0935 1.82102L11.8032 10.0068L11.8062 9.99779ZM50.0715 11.8155L52.0092 6.83027C51.9852 6.88426 52.4081 5.80142 52.6541 5.13252L52.9871 6.67129L54.1119 11.8125H50.0685L50.0715 11.8155Z" fill="#FDFDFD"/>
</g>
<defs>
<clipPath id="clip0_1_530">
<rect width="60" height="19" fill="white"/>
</clipPath>
</defs>
</svg>
