<svg width="280" height="176" viewBox="0 0 280 176" fill="none" xmlns="http://www.w3.org/2000/svg">
<g clip-path="url(#clip0_1_655)">
<rect width="280" height="176" rx="15" fill="#282828"/>
<g clip-path="url(#clip1_1_655)">
<path d="M187.016 42.3773C186.774 42.5389 186.855 42.7004 187.097 42.7811C187.339 42.8619 187.661 42.7004 187.984 42.4581C188.145 42.2966 188.306 42.1351 188.548 41.9735C188.71 41.812 188.79 41.5697 188.79 41.4082C188.71 41.489 188.548 41.489 188.468 41.5698C188.306 41.6505 188.226 41.6505 188.145 41.7313C187.742 41.812 187.339 42.0543 187.016 42.3773ZM192.339 41.8928C192.742 41.9735 192.661 42.1351 192.177 42.4581C191.935 42.6196 191.694 42.7004 191.532 42.7811C191.371 42.8619 191.21 42.9427 191.129 43.0234C190.968 43.1042 190.887 43.1849 190.726 43.2657C190.564 43.3464 190.403 43.4272 190.161 43.5887C189.435 43.9118 188.952 44.2348 188.548 44.3963C188.145 44.5578 187.823 44.6386 187.339 44.7194C187.097 44.7194 186.774 44.7194 186.452 44.6386C186.129 44.5578 185.968 44.3963 185.806 44.2348C185.726 44.0733 185.645 43.9925 185.645 43.831C185.645 43.6695 185.645 43.5887 185.726 43.4272C185.887 43.0234 186.129 42.7004 186.452 42.3773C186.774 42.0543 187.177 41.7313 187.742 41.489C187.903 41.4082 188.064 41.3275 188.387 41.2467C188.629 41.166 188.952 41.166 189.194 41.166C189.355 41.166 189.435 41.2467 189.516 41.3275C189.597 41.4082 189.597 41.489 189.516 41.5698C189.516 41.7313 189.435 41.812 189.274 42.0543C189.113 42.2158 189.032 42.3773 188.79 42.5389C188.629 42.7004 188.387 42.8619 188.145 42.9427C187.903 43.0234 187.661 43.1042 187.419 43.1042C187.258 43.1042 187.097 43.1042 187.016 43.0234C186.855 43.0234 186.774 42.9427 186.694 42.8619C186.613 43.0234 186.532 43.1849 186.452 43.3464C186.371 43.508 186.371 43.6695 186.371 43.9118C186.371 44.0733 186.452 44.154 186.613 44.2348C186.694 44.3156 186.935 44.3963 187.339 44.3156C187.581 44.3156 187.823 44.2348 188.064 44.154C188.306 44.0733 188.468 43.9925 188.71 43.831C189.194 43.5887 189.597 43.4272 189.919 43.2657C190.242 43.1042 190.564 42.9427 190.806 42.7811C191.048 42.6196 191.371 42.5389 191.613 42.3773C191.774 42.2158 192.016 42.0543 192.339 41.8928Z" fill="#FBF8F3"/>
<path d="M196.371 40.3584C196.29 40.3584 196.29 40.3584 196.21 40.4391C196.129 40.5199 196.129 40.5199 196.129 40.6007C196.048 40.6814 196.048 40.7622 196.048 40.9237L196.29 40.6814C196.371 40.6007 196.371 40.5199 196.452 40.5199C196.371 40.3584 196.371 40.3584 196.371 40.3584ZM199.597 41.8928C199.677 41.9736 199.758 42.0543 199.677 42.1351C199.597 42.2158 199.516 42.2158 199.435 42.2158C199.113 42.2966 198.79 42.3774 198.468 42.3774C198.145 42.4581 197.823 42.4581 197.581 42.5389C197.258 42.6196 196.855 42.6196 196.532 42.5389C196.21 42.4581 195.887 42.3774 195.726 42.2158C195.645 42.1351 195.564 42.1351 195.564 42.0543C195.403 42.2158 195.161 42.4581 195 42.6196C194.758 42.7812 194.597 42.9427 194.355 43.1042C194.032 43.3465 193.71 43.5887 193.306 43.7503C193.226 43.831 193.064 43.9118 192.903 43.9118C192.581 44.0733 192.339 44.0733 192.177 44.0733C191.935 44.0733 191.855 43.9925 191.694 43.9118C191.613 43.831 191.532 43.7503 191.532 43.6695C191.532 43.5887 191.532 43.508 191.532 43.3465C191.532 43.2657 191.532 43.185 191.613 43.1042C191.613 43.0234 191.694 42.9427 191.774 42.7004C191.855 42.4581 192.016 42.2966 192.097 42.0543C192.258 41.812 192.419 41.6505 192.5 41.489C192.661 41.3275 192.823 41.2467 192.984 41.3275C193.145 41.4083 193.145 41.4083 193.145 41.489C193.064 41.5698 192.984 41.7313 192.823 41.8928C192.742 42.0543 192.581 42.2158 192.581 42.2966C192.5 42.3774 192.419 42.5389 192.339 42.7004C192.339 42.7812 192.258 42.7812 192.258 42.9427C192.177 43.0234 192.177 43.1042 192.177 43.2657C192.177 43.3465 192.097 43.508 192.097 43.5887C192.097 43.6695 192.097 43.7503 192.177 43.7503C192.258 43.7503 192.339 43.7503 192.5 43.6695C192.661 43.5887 192.742 43.508 192.903 43.4272C193.064 43.3465 193.226 43.185 193.468 43.0234C193.79 42.8619 194.032 42.7004 194.274 42.4581L195 41.812C195 41.7313 195.081 41.7313 195.161 41.6505C195.242 41.5698 195.242 41.5698 195.323 41.489C195.403 41.489 195.403 41.4083 195.403 41.4083C195.403 41.4083 195.403 41.3275 195.484 41.3275C195.484 41.0852 195.484 40.8429 195.645 40.5199C195.645 40.3584 195.726 40.2776 195.806 40.1969C195.887 40.1161 195.968 40.0353 196.048 40.0353C196.129 39.9546 196.21 39.9546 196.29 39.9546C196.452 39.9546 196.532 39.9546 196.613 39.9546C196.855 39.9546 197.016 40.1161 197.097 40.2776C197.177 40.4391 197.097 40.6007 197.016 40.6814C196.855 40.8429 196.694 41.0045 196.532 41.166C196.29 41.4083 196.21 41.5698 196.21 41.6505C196.21 41.812 196.29 41.8928 196.452 41.9736C196.613 42.0543 196.855 42.1351 197.097 42.1351C197.177 42.1351 197.419 42.1351 197.661 42.0543C197.984 42.0543 198.226 41.9736 198.548 41.8928C198.79 42.0543 199.194 41.9736 199.597 41.8928Z" fill="#FBF8F3"/>
<path d="M199.758 42.3773C199.516 42.5389 199.597 42.7004 199.839 42.7811C200.081 42.8619 200.403 42.7004 200.726 42.4581C200.887 42.2966 201.048 42.1351 201.29 41.9735C201.532 41.812 201.532 41.5697 201.532 41.4082C201.452 41.489 201.29 41.489 201.21 41.5698C201.048 41.6505 200.968 41.6505 200.887 41.7313C200.403 41.812 200.081 42.0543 199.758 42.3773ZM205 41.8928C205.403 41.9735 205.323 42.1351 204.839 42.4581C204.597 42.6196 204.355 42.7004 204.194 42.7811C204.032 42.8619 203.871 42.9427 203.79 43.0234C203.629 43.1042 203.548 43.1849 203.387 43.2657C203.226 43.3464 203.065 43.4272 202.823 43.5887C202.097 43.9118 201.613 44.2348 201.21 44.3963C200.806 44.5578 200.484 44.6386 200 44.7194C199.758 44.7194 199.435 44.7194 199.113 44.6386C198.79 44.5578 198.629 44.3963 198.468 44.2348C198.387 44.0733 198.306 43.9925 198.306 43.831C198.306 43.6695 198.306 43.5887 198.387 43.4272C198.548 43.0234 198.79 42.7004 199.113 42.3773C199.435 42.0543 199.839 41.7313 200.403 41.489C200.565 41.4082 200.726 41.3275 201.048 41.2467C201.29 41.166 201.613 41.166 201.855 41.166C202.016 41.166 202.097 41.2467 202.177 41.3275C202.258 41.4082 202.258 41.489 202.177 41.5698C202.177 41.7313 202.097 41.812 201.935 42.0543C201.774 42.2158 201.694 42.3773 201.452 42.5389C201.29 42.7004 201.048 42.8619 200.806 42.9427C200.565 43.0234 200.323 43.1042 200.081 43.1042C199.919 43.1042 199.758 43.1042 199.677 43.0234C199.516 43.0234 199.435 42.9427 199.355 42.8619C199.274 43.0234 199.194 43.1849 199.113 43.3464C199.032 43.508 199.032 43.6695 199.032 43.9118C199.032 44.0733 199.113 44.154 199.274 44.2348C199.355 44.3156 199.597 44.3963 200 44.3156C200.242 44.3156 200.484 44.2348 200.726 44.154C200.968 44.0733 201.129 43.9925 201.371 43.831C201.855 43.5887 202.258 43.4272 202.581 43.2657C202.903 43.1042 203.226 42.9427 203.468 42.7811C203.71 42.6196 204.032 42.5389 204.274 42.3773C204.435 42.2158 204.677 42.0543 205 41.8928Z" fill="#FBF8F3"/>
<path d="M204.677 42.0543C204.677 42.0543 204.516 42.1351 205 41.812C205.565 41.489 205.403 41.489 205.645 41.5698C205.887 41.6505 205.645 41.9736 205.645 41.9736C205.887 42.1351 206.129 42.2158 206.21 42.2966C206.532 42.5389 206.694 42.7812 206.694 43.0234C206.694 43.185 206.694 43.2657 206.613 43.3465C206.613 43.4272 206.532 43.508 206.452 43.6695C206.452 43.6695 206.371 43.7503 206.371 43.9118C206.371 44.0733 206.29 44.1541 206.371 44.1541C206.452 44.1541 206.532 44.1541 206.694 44.1541C206.855 44.0733 206.935 44.0733 207.097 43.9925C207.258 43.9118 207.419 43.9118 207.581 43.831C207.742 43.7503 207.903 43.6695 208.065 43.5887C208.226 43.508 208.387 43.4272 208.548 43.3465C208.629 43.3465 208.71 43.2657 209.032 43.1042C209.274 42.9427 209.516 42.7812 209.758 42.7004C209.919 42.6196 210.081 42.4581 210.242 42.3774C210.403 42.2966 210.565 42.2158 210.565 42.1351L211.048 41.812C211.129 41.812 211.21 41.8928 211.29 41.8928C211.452 41.9736 211.452 42.0543 211.371 42.0543C211.29 42.0543 211.21 42.1351 211.129 42.2158C210.968 42.3774 210.806 42.4581 210.565 42.6196L209.839 43.1042C209.516 43.2657 209.194 43.508 208.871 43.6695C208.548 43.831 208.226 43.9925 207.823 44.1541C207.581 44.2348 207.339 44.3156 207.016 44.3963C206.694 44.4771 206.371 44.4771 206.048 44.4771C205.806 44.3963 205.726 44.3963 205.645 44.3156C205.565 44.2348 205.565 44.1541 205.565 44.0733C205.565 43.9925 205.565 43.9118 205.645 43.7503C205.726 43.6695 205.726 43.5887 205.726 43.508C205.806 43.3465 205.806 43.1849 205.806 42.9427C205.806 42.7812 205.645 42.6196 205.403 42.4581C205.242 42.3774 205.161 42.2966 205.081 42.2966C205 42.2158 204.839 42.1351 204.758 42.1351L204.677 42.0543Z" fill="#FBF8F3"/>
<path d="M215.726 41.6505C215.887 41.7313 215.968 41.8121 215.887 41.8928C215.806 42.0543 215.726 42.2158 215.565 42.3774C215.403 42.5389 215.323 42.7004 215.161 42.8619C214.194 44.1541 212.339 47.546 212.258 47.7075C212.177 47.869 212.177 47.9497 212.177 47.9497C212.177 48.0305 212.097 48.1113 211.936 48.0305C211.774 48.0305 211.694 47.9497 211.613 47.869C211.613 47.7882 211.613 47.7075 211.613 47.7075C211.694 47.546 214.355 43.1042 214.355 43.1042C214.436 43.0234 214.436 42.9427 214.516 42.8619C214.597 42.7812 214.597 42.7004 214.677 42.6196C214.677 42.6196 214.677 42.5389 214.758 42.5389C214.758 42.5389 214.758 42.4581 214.839 42.4581L215 42.2966H214.919H214.839C214.758 42.2966 214.758 42.3774 214.677 42.3774C214.597 42.3774 214.516 42.4581 214.516 42.4581C214.274 42.5389 214.032 42.7004 213.871 42.7812C213.71 42.8619 213.387 43.0234 213.145 43.1042C212.984 43.185 212.823 43.185 212.661 43.2657C212.5 43.3465 212.258 43.3465 212.097 43.3465C211.855 43.3465 211.613 43.3465 211.371 43.2657C211.129 43.185 210.968 43.0234 210.968 42.8619C210.887 42.7004 210.887 42.5389 210.968 42.3774C210.968 42.2158 211.048 42.1351 211.129 41.9736C211.21 41.8121 211.29 41.7313 211.532 41.6505C211.694 41.6505 211.774 41.6505 211.855 41.6505C212.016 41.7313 212.016 41.8121 211.936 41.8928C211.855 41.9736 211.774 42.0543 211.774 42.1351C211.694 42.2158 211.694 42.2966 211.694 42.4581C211.694 42.5389 211.613 42.6196 211.613 42.7812C211.613 42.8619 211.613 42.9427 211.694 43.0234C211.694 43.1042 211.855 43.185 212.016 43.185C212.258 43.185 212.5 43.185 212.661 43.1042C212.903 43.0234 213.065 42.9427 213.226 42.8619C213.468 42.7812 213.71 42.7004 213.952 42.6196C214.194 42.5389 214.355 42.3774 214.597 42.2966C214.758 42.2158 214.919 42.1351 215.081 42.0543C215.242 41.9736 215.403 41.8928 215.565 41.8121C215.645 41.8121 215.645 41.8121 215.645 41.8121C215.645 41.8121 215.645 41.8121 215.726 41.8121C215.403 41.5698 215.565 41.5698 215.726 41.6505Z" fill="#FBF8F3"/>
<path d="M241.532 39.5508C241.694 39.6315 241.694 39.7123 241.613 39.793C241.452 39.8738 241.371 39.8738 241.21 39.793C241.129 39.7123 241.048 39.7123 240.887 39.7123C239.274 39.6315 237.581 39.5508 235.968 39.47C234.355 39.3892 232.661 39.3892 230.968 39.3085C229.516 39.3085 228.064 39.3085 226.694 39.3085C225.242 39.3085 223.871 39.3085 222.419 39.3892C222.177 39.3892 221.935 39.3892 221.694 39.3892C221.452 39.3892 221.21 39.3892 220.968 39.3892H220.645C220.484 39.3892 220.161 39.3892 220.081 39.3892C219.758 39.8738 214.516 49.4034 214.516 49.4034C214.516 49.4841 214.435 49.5649 214.355 49.5649C214.274 49.6457 214.355 49.7264 214.113 49.6457C214.032 49.6457 213.952 49.5649 213.952 49.5649C213.871 49.4841 213.871 49.4034 213.952 49.2419C214.032 49.0803 214.113 48.9996 214.194 48.8381C214.597 48.192 218.387 41.0852 218.629 40.7621C218.79 40.4391 218.952 40.1968 219.194 39.8738C219.274 39.793 219.274 39.7123 219.355 39.6315C219.435 39.5508 219.435 39.47 219.516 39.3892C219.194 39.3892 218.952 39.3892 218.71 39.3892C218.468 39.3892 218.306 39.3892 218.064 39.3892H217.5C217.258 39.3892 216.935 39.3892 216.694 39.3892C216.452 39.3892 216.21 39.3892 215.887 39.3892H214.516H213.71C213.468 39.3892 213.145 39.3892 212.903 39.3085C212.742 39.3085 212.581 39.2277 212.5 39.2277C212.339 39.147 212.339 39.0662 212.339 38.9854L212.419 38.9047C212.5 38.9047 212.5 38.8239 212.581 38.8239C212.742 38.7432 212.903 38.7432 212.984 38.7432C213.145 38.7432 213.226 38.7432 213.226 38.8239C213.306 38.9047 213.226 38.9047 213.145 38.9854C213.064 38.9854 213.064 39.0662 212.903 39.0662C212.823 39.0662 212.823 39.0662 212.823 39.0662H212.742C212.823 39.0662 212.903 39.147 212.984 39.147C213.226 39.147 213.387 39.147 213.548 39.147C213.71 39.147 213.952 39.147 214.113 39.147H214.839C215.081 39.147 215.323 39.147 215.564 39.147H216.371C216.613 39.147 216.855 39.147 217.097 39.147C217.177 39.147 217.419 39.147 217.661 39.147C217.903 39.147 218.226 39.147 218.468 39.147C218.79 39.147 219.194 39.147 219.516 39.0662C219.597 38.9047 219.677 38.8239 219.758 38.6624C219.839 38.5009 219.919 38.4201 220 38.2586C220.081 38.0971 220.242 37.9356 220.323 37.7741C220.403 37.6125 220.564 37.451 220.645 37.2895L221.29 36.4012C221.371 36.2396 221.532 36.0781 221.694 35.9166C221.694 35.8358 221.774 35.8358 221.774 35.8358C221.774 35.7551 221.855 35.7551 221.935 35.8358C222.016 35.8358 222.097 35.8358 222.177 35.9166C222.258 35.9974 222.258 36.0781 222.177 36.1589C222.177 36.1589 221.774 36.6434 221.694 36.8049C221.613 36.9665 220.403 38.6624 220.161 39.0662H221.048H221.694C221.935 39.0662 222.097 39.0662 222.339 39.0662C224.032 39.0662 225.645 38.9854 227.258 38.9854C228.871 38.9854 230.564 38.9854 232.177 39.0662C233.629 39.0662 235.081 39.147 236.452 39.2277C237.903 39.3085 239.274 39.3892 240.726 39.47C240.806 39.47 240.806 39.47 240.887 39.47C240.968 39.47 241.048 39.47 241.129 39.5508C241.371 39.5508 241.452 39.5508 241.532 39.5508Z" fill="#FBF8F3"/>
<path d="M221.694 42.2158C221.613 42.3773 221.532 42.5388 221.452 42.6196C221.371 42.7811 221.29 42.8619 221.21 43.0234C221.29 42.9426 221.371 42.9426 221.371 42.8619C221.371 42.7811 221.452 42.7811 221.532 42.7004C221.613 42.6196 221.613 42.6196 221.694 42.6196C221.855 42.4581 222.016 42.2966 222.177 42.2158C222.339 42.0543 222.581 41.9735 222.742 41.812C222.903 41.7313 223.065 41.6505 223.145 41.5697C223.468 41.489 223.79 41.489 224.032 41.6505C224.194 41.7313 224.274 41.812 224.274 41.8928C224.274 41.9735 224.274 42.1351 224.274 42.2158C224.274 42.4581 224.194 42.6196 224.113 42.8619C224.032 43.1042 223.952 43.2657 223.871 43.508C223.79 43.6695 223.79 43.831 223.71 43.9118C223.71 43.9925 223.71 44.154 223.71 44.2348C223.71 44.3155 223.71 44.3963 223.79 44.3963C223.871 44.3963 223.952 44.3963 224.113 44.3155C224.274 44.2348 224.355 44.154 224.516 44.0733C224.677 43.9925 224.839 43.9118 225.081 43.7502C225.242 43.5887 225.484 43.508 225.726 43.3464C225.968 43.1849 226.29 43.0234 226.452 42.8619C226.694 42.7004 227.016 42.5388 227.339 42.2966C227.581 42.3773 227.661 42.4581 227.581 42.4581C227.5 42.5388 227.5 42.5388 227.419 42.6196C227.258 42.7811 227.016 42.9426 226.855 43.1042C226.613 43.2657 226.452 43.4272 226.21 43.5887C225.968 43.7502 225.726 43.9118 225.484 44.0733C225.242 44.2348 225.081 44.3155 224.919 44.3963C224.839 44.4771 224.758 44.4771 224.677 44.5578C224.597 44.5578 224.516 44.6386 224.516 44.6386C224.435 44.6386 224.355 44.7193 224.274 44.7193C224.032 44.8001 223.871 44.8001 223.629 44.7193C223.387 44.7193 223.226 44.5578 223.226 44.3963C223.145 44.3155 223.145 44.2348 223.145 44.0733C223.145 43.9118 223.226 43.7502 223.226 43.5887C223.226 43.4272 223.306 43.2657 223.387 43.1042C223.468 42.9426 223.468 42.7811 223.548 42.6196L223.629 42.2158C223.629 42.1351 223.629 42.0543 223.629 41.9735C223.629 41.8928 223.548 41.812 223.548 41.812C223.468 41.812 223.387 41.812 223.226 41.8928C223.065 41.9735 222.984 42.0543 222.823 42.1351C222.661 42.2158 222.5 42.3773 222.339 42.4581C222.258 42.4581 222.258 42.5388 222.177 42.6196C222.097 42.7004 222.097 42.7004 222.016 42.7811C221.855 42.9426 221.694 43.0234 221.613 43.1849C221.532 43.2657 221.371 43.4272 221.21 43.5887C221.048 43.7502 220.968 43.831 220.806 43.9925C220.726 44.154 220.565 44.2348 220.484 44.3963C220.403 44.3963 220.403 44.4771 220.403 44.4771C220.323 44.5578 220.161 44.5578 220 44.5578C219.839 44.4771 219.758 44.4771 219.758 44.3963C219.758 44.3155 219.758 44.2348 219.839 44.0733L220.161 43.2657L220.565 42.4581C220.645 42.2966 220.726 42.1351 220.806 42.0543C220.887 41.8928 220.968 41.812 221.048 41.6505C221.129 41.489 221.21 41.3275 221.29 41.1659C221.371 41.0044 221.532 40.8429 221.613 40.6814C221.694 40.5199 221.774 40.4391 221.774 40.2776C221.855 40.1161 221.935 40.0353 221.935 39.9546C222.016 39.793 222.097 39.7123 222.177 39.5508C222.258 39.3892 222.339 39.3085 222.419 39.2277C222.5 39.147 222.581 38.9854 222.581 38.9047C222.661 38.8239 222.661 38.6624 222.742 38.5817L223.065 38.0971C223.145 38.0163 223.226 37.9356 223.226 37.8548C223.306 37.7741 223.306 37.6933 223.387 37.6125C223.468 37.451 223.629 37.2895 223.71 37.128C223.79 36.9665 223.871 36.8049 224.032 36.6434C224.113 36.4819 224.194 36.4012 224.274 36.2396C224.355 36.0781 224.435 35.9974 224.516 35.8358L225 35.1898C225 35.109 225.081 35.109 225.161 35.0282C225.242 34.9475 225.323 34.9475 225.323 34.8667C225.323 34.8667 225.323 34.786 225.403 34.786C225.484 34.7052 225.565 34.7052 225.645 34.786C225.726 34.786 225.806 34.8667 225.806 34.9475C225.726 35.0283 225.645 35.109 225.645 35.1898C225.565 35.2705 225.484 35.432 225.403 35.5128C225.323 35.5936 225.242 35.7551 225.161 35.8358C225 36.0781 224.839 36.2396 224.758 36.4819C224.677 36.5627 224.597 36.6434 224.597 36.805C224.597 36.9665 224.516 36.9665 224.435 37.128C224.355 37.2895 224.274 37.451 224.194 37.5318C224.113 37.6933 224.032 37.7741 223.952 37.9356C223.79 38.2586 223.548 38.5817 223.387 38.9047C223.306 39.0662 223.226 39.2277 223.065 39.3892C222.984 39.5508 222.823 39.7123 222.742 39.9546C222.661 40.1161 222.581 40.2776 222.5 40.4391C222.419 40.6006 222.339 40.7621 222.258 40.9237L221.694 42.2158Z" fill="#FBF8F3"/>
<path d="M228.306 41.3275C228.145 41.3275 228.145 41.2467 228.145 41.1659C228.145 41.0852 228.306 40.9237 228.306 40.8429C228.387 40.7621 228.468 40.7621 228.629 40.7621C228.71 40.8429 228.71 40.8429 228.71 40.9237L228.548 41.1659C228.468 41.3275 228.387 41.3275 228.306 41.3275ZM232.016 42.2966C232.177 42.4581 232.258 42.5388 232.177 42.5388C232.097 42.6196 231.855 42.7004 231.613 42.8619C231.371 42.9426 231.129 43.1042 230.887 43.1849C230.645 43.2657 230.403 43.4272 230.161 43.508C230 43.5887 229.839 43.6695 229.677 43.7502C229.516 43.831 229.355 43.9118 229.194 43.9925C229.032 44.0733 228.871 44.154 228.71 44.154C228.548 44.2348 228.387 44.2348 228.226 44.3155C228.065 44.3155 227.984 44.3155 227.903 44.3155C227.823 44.3155 227.661 44.3155 227.581 44.3155C227.339 44.2348 227.177 44.2348 227.097 44.0733C226.936 43.9118 226.855 43.7502 226.936 43.5887C227.016 43.4272 227.097 43.1849 227.177 43.1042C227.258 42.8619 227.339 42.7004 227.419 42.6196C227.5 42.4581 227.581 42.2966 227.742 42.1351C227.823 42.0543 227.903 41.9735 227.984 41.8928C228.065 41.8928 228.065 41.812 228.065 41.812C228.145 41.812 228.306 41.812 228.387 41.812C228.468 41.812 228.548 41.8928 228.548 41.8928C228.548 41.9735 228.548 42.0543 228.387 42.2158C228.306 42.3773 228.226 42.5388 228.145 42.6196C228.065 42.7811 227.903 42.9426 227.903 43.1042C227.823 43.2657 227.742 43.4272 227.661 43.5887C227.581 43.7502 227.661 43.9118 227.823 43.9925C227.903 43.9925 228.065 43.9925 228.306 43.9118C228.548 43.831 228.71 43.7502 228.79 43.6695C229.032 43.5887 229.355 43.4272 229.597 43.3464C229.839 43.2657 230.161 43.1042 230.403 43.0234C230.565 42.9426 230.806 42.8619 230.968 42.7811C231.129 42.7004 231.371 42.6196 231.532 42.5388C231.532 42.5388 231.774 42.3773 232.016 42.2966Z" fill="#FBF8F3"/>
<path d="M234.839 43.9926C235 43.9118 235.161 43.831 235.323 43.7503C235.484 43.6695 235.565 43.6695 235.726 43.5888C235.887 43.508 236.129 43.4272 236.452 43.2657C236.774 43.1042 237.097 42.9427 237.419 42.7812C237.823 42.6196 238.226 42.4581 238.629 42.2158C238.79 42.2966 238.871 42.2966 238.79 42.3774L238.71 42.4581C238.548 42.5389 238.387 42.6196 238.226 42.7004C238.065 42.7812 237.984 42.8619 237.823 42.9427C237.661 43.0234 237.581 43.1042 237.419 43.185C237.258 43.2657 237.097 43.3465 236.935 43.4272C236.694 43.508 236.532 43.5888 236.371 43.6695C236.29 43.7503 236.129 43.831 235.968 43.9118C235.806 43.9925 235.645 44.0733 235.484 44.1541C235.323 44.2348 235.161 44.3156 235.081 44.3156C234.839 44.3963 234.677 44.3963 234.516 44.3156C234.355 44.2348 234.274 44.1541 234.274 44.0733C234.274 43.9925 234.274 43.9118 234.274 43.831L234.597 43.0234C234.597 42.9427 234.677 42.8619 234.677 42.8619C234.677 42.7812 234.758 42.7004 234.758 42.7004C234.758 42.6196 234.839 42.5389 234.839 42.4581C234.839 42.3774 234.839 42.3774 234.919 42.2966C234.839 42.2966 234.758 42.3774 234.677 42.3774C234.597 42.3774 234.597 42.3774 234.516 42.4581C234.274 42.5389 234.032 42.7004 233.871 42.7812C233.71 42.8619 233.468 43.0234 233.306 43.1042C233.145 43.185 232.984 43.3465 232.742 43.4272C232.581 43.508 232.419 43.6695 232.177 43.7503C232.097 43.7503 232.016 43.831 231.935 43.9118C231.855 43.9118 231.694 43.9118 231.613 43.9118C231.532 43.9118 231.452 43.831 231.371 43.7503C231.371 43.6695 231.371 43.5888 231.371 43.5888C231.371 43.508 231.452 43.4272 231.532 43.2657C231.613 43.1042 231.613 42.9427 231.694 42.8619C231.774 42.7004 231.774 42.6196 231.855 42.4581C231.935 42.3774 231.935 42.2966 231.935 42.2966C232.016 42.2158 232.177 42.2158 232.258 42.2158C232.419 42.2158 232.5 42.2966 232.5 42.4581C232.419 42.5389 232.419 42.6196 232.419 42.7812C232.419 42.8619 232.339 42.9427 232.339 43.1042C232.339 43.1042 232.258 43.185 232.258 43.3465C232.581 43.1042 232.903 42.9427 233.226 42.7004C233.548 42.5389 233.952 42.3774 234.355 42.1351C234.435 42.1351 234.516 42.0543 234.597 42.0543C234.677 41.9736 234.839 41.9736 234.919 41.9736C235.081 41.9736 235.161 41.9736 235.323 42.0543C235.403 42.1351 235.484 42.1351 235.484 42.2158C235.484 42.2966 235.565 42.3774 235.565 42.3774C235.565 42.4581 235.565 42.5389 235.565 42.5389C235.484 42.7004 235.484 42.8619 235.403 43.0234C235.323 43.185 235.242 43.3465 235.161 43.508C235.161 43.5888 235.081 43.6695 235.081 43.7503C235.081 43.831 235 43.9118 235 43.9926C234.839 43.9118 234.839 43.9118 234.839 43.9926Z" fill="#FBF8F3"/>
<path d="M238.71 43.5887C238.871 43.508 239.032 43.4272 239.194 43.2657C239.355 43.1042 239.516 43.1042 239.516 43.0234C239.516 43.0234 239.597 42.9427 239.677 42.9427C239.758 42.8619 239.839 42.7812 239.919 42.7004C240 42.6196 240.081 42.5389 240.242 42.3774C240.161 42.2966 240 42.2966 239.839 42.2966C239.677 42.2966 239.597 42.2966 239.436 42.3774C239.032 42.4581 238.71 42.6196 238.468 42.8619C238.226 43.0234 238.065 43.2657 238.065 43.508L238.145 43.7503C238.145 43.831 238.226 43.831 238.387 43.831C238.468 43.831 238.548 43.7503 238.629 43.7503C238.548 43.6695 238.629 43.5887 238.71 43.5887ZM239.113 45.4462C239.113 45.4462 237.903 46.0923 237.177 47.0614C236.855 47.4652 236.694 47.869 236.694 48.2728C236.694 48.4343 236.936 48.5958 237.177 48.5958C238.145 48.1113 239.194 45.7692 239.113 45.4462ZM244.113 42.2966C244.274 42.3774 244.355 42.4581 244.355 42.4581C244.355 42.5389 244.355 42.5389 244.194 42.7004C244.032 42.7812 240.242 44.8809 239.839 45.2039C239.839 45.2847 239.032 47.4652 238.468 48.1113C238.306 48.2728 237.5 49.3226 236.532 48.9996C235.968 48.8381 236.048 47.7075 236.371 47.1421C237.177 46.0115 239.194 44.7194 239.274 44.6386C239.274 44.5579 240 43.4272 240.081 43.2657C240 43.3465 239.839 43.4272 239.758 43.4272C239.677 43.508 239.597 43.5887 239.436 43.5887C239.355 43.6695 239.274 43.6695 239.113 43.7503C238.952 43.831 238.871 43.9118 238.71 43.9118C238.548 43.9925 238.387 43.9925 238.226 43.9925C238.065 43.9925 237.903 43.9118 237.742 43.831C237.5 43.6695 237.339 43.4272 237.419 43.185C237.5 42.9427 237.661 42.7004 237.742 42.5389C238.145 42.1351 238.79 41.8928 239.597 41.812C239.839 41.812 240.081 41.812 240.323 41.8928C240.403 41.8928 240.403 41.8928 240.484 41.9736L240.565 41.8928C240.565 41.8928 241.048 41.2467 241.129 41.166C241.21 41.0045 241.371 41.0045 241.613 41.0852C241.855 41.166 241.936 41.2467 241.855 41.3275C241.452 41.7313 240.161 43.4272 240 44.2348C240.161 44.3156 243.79 42.4581 244.113 42.2966Z" fill="#FBF8F3"/>
<path d="M179.838 34.5437H179.919C180.403 34.5437 180.725 33.9784 180.403 33.5746L173.951 24.8526C173.79 24.6103 173.79 24.2873 173.951 24.1258L179.919 16.0499C180.242 15.6461 179.919 15.0808 179.435 15.0808C179.274 15.0808 179.032 15.1615 178.951 15.323L173.387 22.8336C173.064 23.0759 172.58 23.0759 172.338 22.7529L166.774 15.2423C166.693 15.0808 166.451 15 166.29 15H166.129C165.645 15 165.322 15.5653 165.645 15.9691L171.613 24.045C171.774 24.2873 171.774 24.6103 171.613 24.7719L165.161 33.5746C164.838 33.9784 165.161 34.5437 165.645 34.5437H165.725C165.887 34.5437 166.129 34.4629 166.209 34.3014L172.258 26.2255C172.5 25.9025 172.984 25.9025 173.306 26.2255L179.355 34.3822C179.435 34.4629 179.596 34.5437 179.838 34.5437Z" fill="#F5CC82"/>
<path d="M187.258 33.8976C187.258 34.3014 187.5 34.5437 187.903 34.5437H199.274C199.597 34.5437 199.919 34.3014 199.919 33.8976C199.919 33.5746 199.677 33.2516 199.274 33.2516H187.823C187.5 33.2516 187.258 33.5746 187.258 33.8976ZM199.274 15H187.823C187.5 15 187.177 15.2423 187.177 15.6461C187.177 15.9691 187.419 16.2921 187.823 16.2921H199.194C199.516 16.2921 199.839 16.0499 199.839 15.6461C199.919 15.2423 199.597 15 199.274 15ZM199.274 23.9643H187.823C187.5 23.9643 187.177 24.2065 187.177 24.6103C187.177 25.0141 187.419 25.2564 187.823 25.2564H199.194C199.516 25.2564 199.839 25.0141 199.839 24.6103C199.839 24.2065 199.597 23.9643 199.274 23.9643Z" fill="#F5CC82"/>
<path d="M221.452 16.7767C220.081 15.5653 218.145 15 215.645 15H209.274C208.952 15 208.629 15.2423 208.629 15.6461C208.629 15.9691 208.871 16.2921 209.274 16.2921H215.645C217.742 16.2921 219.274 16.7767 220.403 17.6651C221.532 18.5534 222.016 19.9263 222.016 21.5415C222.016 23.2374 221.452 24.5296 220.403 25.4179C219.274 26.3063 217.661 26.7908 215.645 26.7908H209.274C208.952 26.7908 208.629 27.0331 208.629 27.4369V33.8976C208.629 34.2207 208.871 34.5437 209.274 34.5437H209.435C209.758 34.5437 210.081 34.3014 210.081 33.8976V28.7291C210.081 28.406 210.323 28.083 210.726 28.083H215.645C218.065 28.083 220 27.5177 221.452 26.387C222.823 25.1757 223.548 23.6412 223.548 21.5415C223.548 19.5225 222.823 17.9073 221.452 16.7767Z" fill="#F5CC82"/>
<path d="M243.871 16.7767C242.419 15.5653 240.484 15 238.065 15H231.694C231.371 15 231.048 15.2423 231.048 15.6461C231.048 15.9691 231.29 16.2921 231.694 16.2921H238.065C240.161 16.2921 241.694 16.7767 242.823 17.6651C243.952 18.5534 244.435 19.9263 244.435 21.5415C244.435 23.2374 243.871 24.5296 242.823 25.4179C241.694 26.3063 240.081 26.7908 238.065 26.7908H231.694C231.371 26.7908 231.048 27.0331 231.048 27.4369V33.8976C231.048 34.2207 231.29 34.5437 231.694 34.5437H231.855C232.177 34.5437 232.5 34.3014 232.5 33.8976V28.7291C232.5 28.406 232.742 28.083 233.145 28.083H238.065C240.484 28.083 242.419 27.5177 243.871 26.387C245.242 25.1757 245.968 23.6412 245.968 21.5415C245.968 19.5225 245.242 17.9073 243.871 16.7767Z" fill="#F5CC82"/>
<path d="M256.532 16.9382V33.9784C256.532 34.3014 256.774 34.6245 257.177 34.6245H257.339C257.661 34.6245 257.984 34.3822 257.984 33.9784V16.9382C257.984 16.6152 258.226 16.2921 258.629 16.2921H264.435C264.758 16.2921 265.081 16.0499 265.081 15.6461C265.081 15.323 264.839 15 264.435 15H250.161C249.839 15 249.516 15.2423 249.516 15.6461C249.516 15.9691 249.758 16.2921 250.161 16.2921H255.968C256.29 16.2921 256.532 16.5344 256.532 16.9382Z" fill="#F5CC82"/>
</g>
<g clip-path="url(#clip2_1_655)">
<path d="M248.616 142.753C247.222 142.245 245.748 141.99 244.264 142C239.465 142 236.075 144.418 236.051 147.888C236.021 150.438 238.46 151.875 240.305 152.727C242.197 153.603 242.83 154.154 242.824 154.937C242.812 156.128 241.313 156.668 239.918 156.668C238.001 156.668 236.954 156.401 235.343 155.732L234.747 155.453L234.066 159.449C235.232 159.935 237.335 160.352 239.507 160.388C244.609 160.388 247.945 157.985 247.984 154.292C248.026 152.256 246.706 150.717 243.928 149.445C242.239 148.62 241.193 148.068 241.193 147.232C241.193 146.491 242.089 145.699 243.964 145.699C245.212 145.669 246.452 145.903 247.603 146.386L248.053 146.587L248.733 142.726L248.616 142.753ZM261.071 142.324H257.321C256.154 142.324 255.275 142.645 254.766 143.803L247.555 160.139H252.657L253.677 157.46L259.904 157.466C260.051 158.093 260.501 160.139 260.501 160.139H265L261.071 142.324ZM229.149 142.174H234.012L230.97 159.998H226.114L227.632 151.083L229.149 142.168V142.174ZM216.806 151.998L217.31 154.472L222.061 142.324H227.212L219.56 160.115H214.422L210.222 145.051C210.154 144.802 209.994 144.589 209.775 144.454C208.262 143.672 206.658 143.079 205 142.687L205.066 142.312H212.892C213.954 142.354 214.809 142.687 215.093 143.821L216.803 152.007L216.806 151.998ZM255.071 153.816L257.009 148.83C256.985 148.884 257.408 147.801 257.654 147.133L257.987 148.671L259.112 153.813H255.068L255.071 153.816Z" fill="#FDFDFD"/>
</g>
<path opacity="0.05" d="M156.952 69.9881L225.135 77.1594L106.913 116.853L156.952 69.9881Z" fill="#66625B"/>
<path opacity="0.05" d="M220.231 56.5803L322.302 83.5629L273.648 161.563L220.231 56.5803Z" fill="#A8A5A2"/>
<path opacity="0.08" d="M127.83 34.2605L54.0049 97.9328L30.3745 36.8599L127.83 34.2605Z" fill="#A8A5A2"/>
<path opacity="0.1" d="M84.2393 51.8287L146.678 55.6637L109.047 109.256L84.2393 51.8287Z" fill="#A8A5A2"/>
<path opacity="0.4" d="M68.3861 31.3105L189.231 156.521L104.427 188.525L68.3861 31.3105Z" fill="#1D1D1D"/>
<path opacity="0.05" d="M82.9774 113.842L103.806 165.568L27.6424 106.953L82.9774 113.842Z" fill="#A8A5A2"/>
<path opacity="0.05" d="M193.091 63.5003L193.091 148.894L133 131.5L193.091 63.5003Z" fill="#A8A5A2"/>
<path opacity="0.5" d="M-5.57042 31.1522L57.9982 -11.0358L51.8528 76.6396L-5.57042 31.1522Z" fill="#1D1D1D"/>
<path opacity="0.3" d="M86.1411 125.796L52.1017 178.376L-5.10693 146.874L86.1411 125.796Z" fill="#1D1D1D"/>
<path opacity="0.3" d="M183 116.66L221.553 57.1933L293.582 116.557L183 116.66Z" fill="#1D1D1D"/>
<path opacity="0.2" d="M127 89.5003L32.5 160.5L-3.86191 69.8802L127 89.5003Z" fill="#353535"/>
<path opacity="0.05" d="M135.641 26.1078L104.791 -19.9615L187.308 5.99157L135.641 26.1078Z" fill="#A8A5A2"/>
<path opacity="0.05" d="M232.879 162.031L239.712 221.332L173.805 170.61L232.879 162.031Z" fill="#A8A5A2"/>
</g>
<defs>
<clipPath id="clip0_1_655">
<rect width="280" height="176" rx="15" fill="white"/>
</clipPath>
<clipPath id="clip1_1_655">
<rect width="100" height="34.6457" fill="white" transform="translate(165 15)"/>
</clipPath>
<clipPath id="clip2_1_655">
<rect width="60" height="19" fill="white" transform="translate(205 142)"/>
</clipPath>
</defs>
</svg>
